<?xml version="1.0" encoding="utf-8"?>
<!-- Generator: Adobe Illustrator 16.0.4, SVG Export Plug-In . SVG Version: 6.00 Build 0)  -->
<!DOCTYPE svg PUBLIC "-//W3C//DTD SVG 1.1//EN" "http://www.w3.org/Graphics/SVG/1.1/DTD/svg11.dtd">
<svg version="1.1" id="Layer_1" xmlns="http://www.w3.org/2000/svg" xmlns:xlink="http://www.w3.org/1999/xlink" x="0px" y="0px"
	 width="288px" height="288px" viewBox="0 0 288 288" enable-background="new 0 0 288 288" xml:space="preserve">
<g>
	<path fill-rule="evenodd" clip-rule="evenodd" fill="#FFFFFF" d="M485.383,222.827c0.629-0.286,1.259-0.572,1.888-0.86
		c-2.648-3.345,1.582-5.85,1.111-9.301c-0.467-3.417,1.214-7.231,2.351-10.742c2.63-8.131,3.174-16.527,3.673-24.952
		c0.139-2.364,0.378-4.724,0.648-8.044c-0.879,1.824-1.441,2.875-2.494,3.397c-0.883,0.438-1.853,0.503-2.718-0.068
		c-0.988-0.653-0.388-1.421-0.108-2.195c0.384-1.061,1.368-2.442-0.042-3.152c-1.289-0.648-3.189-1.19-4.353-0.008
		c-1.588,1.616-2.842,2.478-5.184,1.269c-1.596-0.824-2.524,1.986-4.373,1.643c3.898-8.644,3.898-8.644,2.875-11.71
		c-0.683,1.591-1.222,2.961-1.742,4.218c-0.644,1.557-1.493,2.067-3.318,2.129c1.312-2.361-1.804-4.732,0.665-7.28
		c0.817-0.844-1.765-1.35-2.347-2.463c7.505-1.336,15.061-2.08,22.235-4.146c5.791-1.667,12.168-2.535,16.784-7.227
		c1.295-1.316,3.346-0.319,4.74-0.98c5.535-2.623,11.927-4.088,15.022-10.306c0.635-1.276,1.843-2.081,3.161-1.946
		c1.415,0.144,0.893,1.667,1.197,2.617c0.491,1.527,0.667,2.471,2.729,0.768c1.282-1.061,3.516-3.436,6.238-1.46
		c0.468,0.339,2.384,0.551,2.808-0.691c0.497-1.46-1.062-1.8-2.069-2.529c1.949,0.39,3.539-1.994,5.274-0.801
		c1.59,1.093,2.252,3.479,3.522,4.612c2.489,2.224,3.086,5.485,5.431,7.714c3.394,3.226,2.816,6.776,0.861,10.872
		c-1.268,2.654-2.269,3.235-4.958,3.513c-2.66,0.273-0.421,2.903-1,4.444c-1.914,0.771-3.617-0.553-5.453-0.72
		c-2.467-0.225-4.074,0.242-3.245,3.175c0.755,2.67-0.506,2.885-2.546,2.236c-1.574-0.502-3.159-0.996-4.684-1.626
		c-2.644-1.093-4.008-0.114-3.747,2.572c0.285,2.932-0.895,3.318-3.268,2.493c-1.336-0.464-2.728-0.78-4.035-1.31
		c-3.101-1.252-5.1-0.311-5.38,2.872c-0.167,1.898-1.409,1.623-2.519,1.662c-3.45,0.117-6.211-1.685-9.066-3.571
		c3.695,12.704,2.802,26.095,7.32,38.654c3.264-3.111,3.846-6.641,4.111-10.564c0.573-8.506,1.634-16.979,2.595-26.438
		c3.056,5.298,3.599,10.395,4.833,15.312c1.255,4.997,0.505,10.399,2.846,15.005c1.403,0.666,0.577-4.465,2.886-0.171
		c1.218-10.11,1.57-19.787,3.621-29.512c3.006,2.771,4.329,6.075,5.41,9.433c1.017,3.154,0.195,6.856,3.063,9.392
		c0.887-5.565,1.747-11.316,2.753-17.042c0.244-1.386,0.304-4.1,1.709-3.64c1.835,0.599,4.703,1.303,4.644,4.465
		c-0.064,3.431-0.015,6.864,0.216,10.299c1.216-6.566,2.432-13.134,3.659-19.764c3.107,1.556,3.107,1.556,3.639,12.146
		c0.822-3.504,1.646-7.007,2.468-10.511c0.618,6.854-0.805,13.47-1.758,20.086c-1.065,7.401-1.746,14.838-2.744,22.239
		c-1.441,10.68-2.419,21.453-5.839,31.77c-1.674,5.049-5.004,8.577-9.394,11.658c-7.583,5.32-16.088,7.497-24.833,9.938
		c-8.419,2.351-16.737,4.284-25.416,4.737c-9.746,0.508-19.49,0.48-29.213-0.502c-0.815-0.083-1.608-0.384-2.705-0.656
		c1.384-1.893,3.965-1.79,4.972-4.188c1.764-4.204,0.647-8.592,1.641-12.817c0.777-3.31,1.029-6.742,3.097-9.589
		c0.67-0.922,0.576-1.629,0.185-2.598c-2.823-6.99-3.527-14.188-2.921-21.732c0.377-4.689,1.324-9.001,3.195-13.27
		c3.743-8.541,3.714-17.84,4.941-27.065c2.526,0.62,2.533,2.706,2.926,4.399c1.275,5.496-0.13,11.192,0.935,16.651
		c1.093,5.611-0.445,10.895-1.182,16.264c-0.543,3.96,1.653,7.405,1.39,11.254c-0.077,1.123,0.896,1.887,2.129,2.01
		c-1.855,0.079-1.352,1.571-1.603,2.632c-0.1,0.424,0.095,1.665-0.653,1.023c-2.176-1.867-1.36,0.478-1.419,0.989
		c-0.524,4.593-1.339,9.2-1.288,13.795c0.043,3.942-1.181,8.391,2.5,11.637c-1.284,0.547-1.918,1.571-1.229,2.784
		c0.657,1.154,1.542,2.518,3.553,1.364c-1.39-1.104-0.703-3.378-2.649-4.169c1.447-0.302,3.015-0.812,3.048-2.467
		c0.144-7.293,0.433-14.553,1.478-21.799C487.104,226.711,488.152,224.04,485.383,222.827z M497.354,168.475
		c-0.135,0.968-0.28,1.406-0.243,1.83c0.668,7.678,1.209,15.36,1.616,23.059c0.199,3.754,1.273,7.461,1.964,11.188
		c0.222,1.192,1.072,1.977,2.154,2.065c1.364,0.112,1.561-1.095,1.836-2.174c0.521-2.046,1.45-4.023,1.709-6.093
		c1.162-9.281,2.287-18.575,2.459-27.942c0.018-0.97,0.297-2.295-1.09-3.032c-0.831,1.454,0.912,3.303-1.669,4.242
		C502.33,172.986,500.131,171.098,497.354,168.475z M503.095,210.16c-0.379-0.439-0.756-1.106-0.944-1.057
		c-1.985,0.521-1.164,2.724-2.227,3.904c-0.583,0.649-0.256,1.565,0.787,1.896c0.551,0.175,1.135-0.037,1.064-0.507
		C501.537,212.795,501.776,211.388,503.095,210.16z M551.388,138.991c2.318-3.176,2.318-3.176-2.143-6.019
		C548.591,135.558,552.173,135.983,551.388,138.991z"/>
	<path fill-rule="evenodd" clip-rule="evenodd" fill="#FFFFFF" d="M540.941,68.356c-2.39-1.856-4.733-3.776-7.191-5.536
		c-0.985-0.705-2.494-1.048-3.25,0.068c-0.88,1.3,0.739,1.961,1.435,2.789c0.289,0.344,0.763,0.659,1.197,0.737
		c4.606,0.824,3.279,5.505,5.258,8.026c-2.567,5.121-0.054,11.326-3.41,16.253c-3.337,4.901-6.708,9.77-12.038,12.854
		c-3.998,2.313-7.885,4.821-11.804,7.269c-0.484,0.303-1.286,1.042-1.235,1.122c1.953,3.013-0.94,2.95-2.361,3.909
		c-1.696,1.145-3.134,1.44-5.222,0.512c-1.629-0.724-4.009-0.227-5.241,1.335c-1.583,2.008-3.714,2.417-5.886,2.92
		c-0.861,0.199-2.132,0.758-2.527-0.396c-0.358-1.052-0.183-2.36,1.002-3.138c5.205-3.424,10.432-6.867,16.825-7.573
		c7.267-0.803,11.842-5.497,16.004-10.798c0.737-0.94,1.405-1.735,2.495-2.351c5.583-3.156,8.727-12.362,6.239-18.351
		c-1.421-3.425-3.485-6.484-6.304-8.96c-0.624-0.548-1.47-1.185-2.228-0.846c-0.932,0.418-0.414,1.473-0.346,2.25
		c0.516,5.76-1.752,10.103-6.501,13.333c-1.204,0.819-2.328,1.138-3.013-0.119c-2.907-5.341-7.512-3.863-11.855-2.998
		c-1.967,0.391-3.773-0.005-5.638-0.218c-1.017-0.116-1.644-0.557-1.434-1.915c0.402-2.62-1.272-2.428-2.652-1.402
		c-1.355,1.008-2.472,0.87-3.497-0.068c-0.902-0.826-1.367-2.51-2.996-1.431c-1.331,0.883-2.733,2.178-2.425,3.837
		c0.343,1.843-0.562,1.424-1.498,1.293c-2.1-0.294-4.193-0.625-6.831-1.023c2.225-1.957,4.233-3.273,6.649-3.954
		c0.582-0.164,1.235-0.42,1.104-1.12c-0.067-0.358-0.659-0.898-0.994-0.883c-3.384,0.145-5.399-2.683-8.21-3.81
		c-1.931-0.773-3.461-0.96-5.841,0.313c1.267-2.9,0.566-4.321-2.119-4.536c-0.793-0.063-1.581-0.487-2.324-0.845
		c-3.679-1.774-5.964-5.514-11.451-4.81c-3.692,0.474-6.469-4.323-8.675-8.184c-5.056-8.848-1.271-16.353,2.677-23.942
		c0.982-1.891,2.269-3.45,2.617-5.779c0.454-3.037,2.863-5.855,4.978-7.33c2.21-1.54,1.804-5.031,4.521-5.255
		c4.501-0.372,7.161-4.649,11.392-5.127c4.685-0.529,9.548-1.188,14.124-0.465c4.216,0.665,8.701,0.962,12.652,3.083
		c2.144,1.151,4.658,0.73,6.922,1.406c5.187,1.549,9.229,4.995,12.614,8.885c4.835,5.554,8.624,11.873,10.252,19.239
		c0.881,3.978,0.658,8.024,0.742,12.046c0.066,3.128,2.186,6.525,5.23,6.7c3.694,0.212,5.274,2.955,7.146,5.125
		c1.544,1.789,2.938,3.743,4.845,5.113c1.83,1.315,2.391,3.02,2.72,5.245c-2.11-0.238-2.972-2.245-4.724-2.561
		C540.862,68.297,540.941,68.356,540.941,68.356z"/>
	<path fill-rule="evenodd" clip-rule="evenodd" fill="#FFFFFF" d="M548.146,80.449c3.048,2.721,5,5.457,4.853,9.407
		c-0.094,2.504-0.04,4.568-3.243,5.367c-2.84,0.708-3.805,3.742-1.836,5.913c2.53,2.791,1.583,5.551,0.603,8.284
		c-0.78,2.176-0.134,3.007,2.029,3.096c-0.537,1.063-1.371,1.683-2.108,1.227c-2.032-1.256-3.554-0.042-4.792,1.053
		c-2.844,2.514-4.901,2.196-6.39-1.259c-0.699-1.623-1.522-1.275-2.332-0.257c-2.124,2.672-4.195,5.394-2.574,9.141
		c0.131,0.303,0.269,0.678,0.204,0.976c-0.577,2.674-7.002,6.799-9.798,6.103c-1.636-0.408-2.909-0.876-2.734,1.551
		c0.055,0.75-0.418,1.374-0.942,1.188c-5.816-2.058-10.64,1.569-15.789,2.884c-6.395,1.632-12.599,4.044-18.822,6.292
		c-1.952,0.706-4.087,1.297-5.894,1.003c-5.136-0.833-10.08,0.606-15.143,0.751c0.662-3.748,2.453-5.681,6.149-5.294
		c12.605,1.316,23.396-4.153,34.388-8.811c15.646-6.629,28.614-16.844,39.047-30.228c2.681-3.439,3.584-7.664,4.152-11.929
		C547.449,84.836,547.793,82.774,548.146,80.449z"/>
	<path fill-rule="evenodd" clip-rule="evenodd" fill="#FFFFFF" d="M450.545,261.483c6.548-3.113,4.145-9.131,4.814-13.756
		c0.278-1.925-0.094-4.219,0.376-6.181c1.256-5.246-1.111-10.001-1.68-14.982c-0.233-2.048-0.632-3.483,2.161-3.212
		c-0.411-1.43-1.415-1.007-2.158-1.176c-1.534-0.349-2.293-1.027-0.744-2.285c0.826-0.67,1.387-1.566,1.273-2.432
		c-0.609-4.645,1.853-8.751,2.174-13.274c0.236-3.324,1.811-6.557,2.665-9.877c1.398-5.434,2.263-10.924,3.002-16.457
		c0.165-1.231-0.159-3.03,1.596-3.126c2.104-0.115,1.339,1.824,1.482,2.96c1.56,12.333-0.723,24.663-0.314,36.913
		c0.485,14.554-2.938,28.732-2.457,43.21c0.159,4.795-0.789,5.234-5.589,4.753C454.933,262.34,452.744,261.851,450.545,261.483z"/>
	<path fill-rule="evenodd" clip-rule="evenodd" fill="#FFFFFF" d="M446.272,183.962c2.754,2.667,1.455,5.606,1.616,8.256
		c0.354,5.799,1.858,11.496,2.207,17.19c0.389,6.347-0.177,12.854-0.838,19.308c-0.784,7.659-3.411,15.28-1.412,23.188
		c0.466,1.843-0.042,4.017-0.437,5.97c-0.391,1.936-1.57,3.146-3.844,2.402c-1.461-0.479-2.952-0.861-4.93-1.432
		c1.327-0.432,1.088-2.23,3.123-1.586c0.97,0.306,1.108-1.546,1.077-2.604c-0.134-4.375-0.433-8.751-0.415-13.124
		c0.013-3.183,0.59-6.363,0.617-9.547c0.032-3.697,4.134-4.374,5.147-7.329c-2.938,0.442-6.07-2.556-6.337-5.554
		c-0.417-4.666-0.769-9.375-1.049-14.011C440.358,197.781,442.383,190.646,446.272,183.962z"/>
	<path fill-rule="evenodd" clip-rule="evenodd" fill="#FFFFFF" d="M432.35,186.839c1.365,3.468,2.362,6.58,1.823,9.731
		c-0.626,3.657,0.209,7.35,0.605,10.715c0.595,5.039-0.447,9.733-0.493,14.577c-0.035,3.738-3.681,3.743-5.477,5.643
		c-0.395,0.417-0.93,0.076-1.039-0.461c-0.116-0.57-0.277-1.258-0.072-1.751c2.112-5.108,0.465-10.425,0.915-15.623
		c0.369-4.267-1.577-8.493-0.075-12.848C429.634,193.644,429.486,190.021,432.35,186.839z"/>
	<path fill-rule="evenodd" clip-rule="evenodd" fill="#FFFFFF" d="M442.561,151.285c0.294-0.349,0.578-0.885,1.022-1.179
		c3.733-2.47,7.111-5.443,11.111-7.554c1.946-1.027,3.872-1.008,5.302,0.15c2.969,2.406,6.308,4.58,7.74,8.453
		c0.243,0.656,0.821,1.228,0.047,1.857c-0.655,0.532-1.326,0.248-2.004-0.004c-0.589-0.22-0.916-1.897-1.249-1.056
		c-1.443,3.645-4.57,1.951-6.765,2.146c-4.13,0.367-8.349-0.034-12.508-0.383C444.244,153.632,443.129,152.725,442.561,151.285z"/>
	<path fill-rule="evenodd" clip-rule="evenodd" fill="none" d="M482.664,252.673c-3.681-3.246-2.457-7.694-2.5-11.637
		c-0.051-4.595,0.764-9.202,1.288-13.795c0.059-0.512-0.757-2.856,1.419-0.989c0.748,0.642,0.554-0.6,0.653-1.023
		c0.251-1.061-0.253-2.553,1.603-2.632c0.086,0.067,0.172,0.146,0.257,0.232c2.769,1.211,1.721,3.882,1.479,5.558
		c-1.045,7.246-1.334,14.506-1.478,21.799c-0.033,1.655-1.601,2.165-3.047,2.467C482.34,252.652,482.664,252.673,482.664,252.673z"
		/>
	<path fill-rule="evenodd" clip-rule="evenodd" fill="#FFFFFF" d="M432.457,255.677c-1.082,0-1.35-0.641-1.396-1.604
		c-0.194-3.992,0.523-8.111-1.625-11.841c-0.228-0.396-0.578-1.049-0.422-1.286c2.165-3.28,0.87-6.243-0.679-9.234
		c-0.303-0.583-0.613-1.532,0.546-1.574c1.816-0.066,2.475-3.047,4.524-1.915c1.048,0.579-0.381,1.785-0.221,2.503
		c1.08,4.839-2.874,9.93,0.754,14.602c-1.465,2.976-0.317,5.833,0.267,8.758C434.349,254.807,433.217,255.305,432.457,255.677z"/>
	<path fill-rule="evenodd" clip-rule="evenodd" fill="#FFFFFF" d="M419.062,186.736c1.655,1.687,2.211,3.804,1.875,5.664
		c-0.629,3.48-0.206,6.795,0.658,10.079c0.373,1.421-0.092,2.216-0.992,3.031c-0.999,0.904-1.946,1.118-2.282-0.52
		C417.078,198.924,414.485,192.801,419.062,186.736z"/>
	<path fill-rule="evenodd" clip-rule="evenodd" fill="#FFFFFF" d="M419.412,241.376c0.89-2.352,1.098-5.104,3.81-6.381
		c0.678-0.318,1.082,0.134,1.28,0.789c0.36,1.195-2.031,7.184-3.187,7.635C419.144,244.269,419.902,242.3,419.412,241.376z"/>
	<path fill-rule="evenodd" clip-rule="evenodd" fill="#FFFFFF" d="M449.675,73.32c-0.265,0.231-0.557,0.684-0.943,0.791
		c-1.5,0.413-2.891,0.981-4.174,1.898c-1.215,0.869-2.11-0.192-2.646-0.968c-0.588-0.857,0.263-1.593,1.026-1.911
		c1.517-0.631,2.947-1.618,4.678-1.548C448.593,71.623,449.509,71.917,449.675,73.32z"/>
	<path fill-rule="evenodd" clip-rule="evenodd" fill="#FFFFFF" d="M519.603,86.445c-0.246-2.125,0.682-3.011,2.53-3.138
		c1.663-0.113,1.819,1.269,1.502,2.077c-0.616,1.564,1.013,4.38-1.847,4.604C519.416,90.174,520.194,87.567,519.603,86.445z"/>
	<path fill-rule="evenodd" clip-rule="evenodd" fill="#FFFFFF" d="M416.08,131.116c0.537,0.082,1.041,0.07,1.469,0.243
		c1.101,0.442,3.196-0.719,3.029,1.814c-0.104,1.595-1.467,1.984-2.545,1.947c-1.807-0.061-3.755-0.793-4.215-2.66
		C413.472,131.051,415.235,131.416,416.08,131.116z"/>
	<path fill-rule="evenodd" clip-rule="evenodd" fill="#FFFFFF" d="M436.885,127.987c2.719-1.031,2.393-4.609,5.237-3.696
		c1.382,0.444,2.486,2.567,1.55,3.791C442.155,130.062,439.9,129.077,436.885,127.987z"/>
	<path fill-rule="evenodd" clip-rule="evenodd" fill="#FFFFFF" d="M500.829,90.546c1.449,0.873,3.711-3.11,4.363,0.587
		c0.297,1.683-1.805,2.247-3.338,2.269c-1.287,0.019-2.679-0.226-2.499-2.156C499.472,90.012,499.918,89.774,500.829,90.546z"/>
	<path fill-rule="evenodd" clip-rule="evenodd" fill="#FFFFFF" d="M526.026,91.764c-0.186,1.952-1.304,3.184-3.265,3.462
		c-0.938,0.132-2.194-0.321-2.08-1.37c0.247-2.265,2.783-2.472,4.143-3.789C525.402,89.508,525.894,90.89,526.026,91.764z"/>
	<path fill-rule="evenodd" clip-rule="evenodd" fill="#FFFFFF" d="M407.657,190.012c-0.384-1.646,1.176-3.164,0.183-4.807
		c-0.084-0.139,0.212-0.703,0.445-0.802c0.678-0.287,1.119,0.208,1.436,0.713c1.404,2.243-0.383,4.064-0.88,6.05
		c-0.042,0.169-0.645,0.373-0.889,0.286C407.114,191.154,407.637,190.487,407.657,190.012z"/>
	<path fill-rule="evenodd" clip-rule="evenodd" fill="#FFFFFF" d="M485.292,124.51c-1.6,2.105-3.017,2.247-4.655,0.765
		c-0.498-0.451-1.414-0.786-0.648-1.543C481.923,121.817,483.266,124.249,485.292,124.51z"/>
	<path fill-rule="evenodd" clip-rule="evenodd" fill="#FFFFFF" d="M540.941,68.356c0,0-0.079-0.059-0.08-0.06
		c0.312,2.516,0.354,5.082,1.446,7.451c0.254,0.549,0.372,1.182-0.237,1.567c-0.197,0.125-0.68-0.003-0.917-0.174
		C540.07,76.354,539.936,69.805,540.941,68.356z"/>
	<path fill-rule="evenodd" clip-rule="evenodd" fill="#FFFFFF" d="M421.608,207.175c-0.192,2.47-0.833,3.828-1.733,5.078
		c-0.376,0.521-0.919,0.849-1.523,0.451c-0.762-0.504-0.211-1.043,0.125-1.491C419.314,210.09,420.19,208.996,421.608,207.175z"/>
	<path fill-rule="evenodd" clip-rule="evenodd" fill="none" d="M497.354,168.475c2.776,2.623,4.976,4.512,8.736,3.143
		c2.581-0.939,0.838-2.788,1.669-4.242c1.387,0.737,1.107,2.062,1.09,3.032c-0.172,9.367-1.297,18.661-2.459,27.942
		c-0.259,2.069-1.188,4.047-1.709,6.093c-0.275,1.079-0.472,2.286-1.836,2.174c-1.082-0.089-1.933-0.873-2.154-2.065
		c-0.69-3.727-1.765-7.434-1.964-11.188c-0.407-7.698-0.948-15.381-1.616-23.059C497.074,169.881,497.22,169.442,497.354,168.475z"
		/>
	<path fill-rule="evenodd" clip-rule="evenodd" fill="none" d="M482.664,252.673c0,0-0.324-0.021-0.325-0.021
		c1.945,0.791,1.259,3.064,2.648,4.169c-2.011,1.153-2.896-0.21-3.553-1.364C480.746,254.244,481.38,253.22,482.664,252.673z"/>
	<path fill-rule="evenodd" clip-rule="evenodd" fill="none" d="M503.095,210.16c-1.318,1.228-1.558,2.635-1.319,4.236
		c0.07,0.47-0.514,0.682-1.064,0.507c-1.043-0.33-1.37-1.246-0.787-1.896c1.062-1.181,0.241-3.383,2.227-3.904
		C502.339,209.054,502.716,209.721,503.095,210.16z"/>
	<path fill-rule="evenodd" clip-rule="evenodd" fill="none" d="M551.388,138.991c0.785-3.007-2.797-3.433-2.143-6.019
		C553.706,135.814,553.706,135.814,551.388,138.991z"/>
</g>
</svg>
