<?xml version="1.0" encoding="utf-8"?>
<!-- Generator: Adobe Illustrator 16.0.4, SVG Export Plug-In . SVG Version: 6.00 Build 0)  -->
<!DOCTYPE svg PUBLIC "-//W3C//DTD SVG 1.1//EN" "http://www.w3.org/Graphics/SVG/1.1/DTD/svg11.dtd">
<svg version="1.1" id="Layer_1" xmlns="http://www.w3.org/2000/svg" xmlns:xlink="http://www.w3.org/1999/xlink" x="0px" y="0px"
	 width="288px" height="288px" viewBox="0 0 288 288" enable-background="new 0 0 288 288" xml:space="preserve">
<g>
	<path fill-rule="evenodd" clip-rule="evenodd" fill="#FFFFFF" d="M490.07,114.439c0.056-0.754,0.105-1.509,0.17-2.262
		c0.03-0.353,0.01-0.839,0.401-0.916c0.464-0.09,0.502,0.433,0.611,0.749c0.668,1.922,1.452,3.804,1.965,5.781
		c0.081,0.312,0.067,0.739,0.706,0.915c0.082-1.889,0.432-3.694,1.086-5.732c0.282,0.663,0.539,1.122,0.677,1.613
		c1.121,4.023,2.702,7.949,2.715,12.215c0.004,1.422,0.649,2.829,0.482,4.154c-0.121,0.961,0.815,2.244-0.559,3.02
		c-0.243,0.137-0.238,0.639,0.067,0.848c0.437,0.298,0.732,0.926,1.401,0.75c0.394-0.104,0.709-0.318,0.761-0.811
		c0.113-1.088-0.213-2.04-0.767-2.956c-0.315-0.521-0.901-1.056-0.052-1.682c0.151-0.112,0.089-0.622,0.014-0.919
		c-0.385-1.526-0.731-3.037-0.82-4.636c-0.044-0.799-0.175-1.693-0.378-2.473c-0.712-2.73-0.128-5.342,0.356-7.984
		c0.049-0.27,0.037-0.607,0.411-0.637c0.434-0.034,0.502,0.35,0.578,0.644c0.459,1.778,0.955,3.549,1.327,5.346
		c0.413,1.993,0.697,4.012,1.057,6.016c0.059,0.323-0.046,0.861,0.432,0.864c0.569,0.004,0.401-0.576,0.495-0.931
		c0.205-0.774,0.212-1.465-0.489-2.065c-0.555-0.476-0.175-1.11-0.072-1.678c0.419-2.325,1.119-4.608,1.141-6.992
		c0.006-0.68,0.294-1.204,0.624-1.789c1.494,5.979,2.425,12.033,3.358,18.13c0.424-1.108,1.084-2.103,0.901-3.392
		c-0.195-1.377-0.472-2.724-0.896-4.047c-0.133-0.414-0.195-0.861-0.076-1.303c0.709-2.637,0.881-5.357,1.253-8.046
		c0.043-0.312,0.087-0.655,0.246-0.912c0.27-0.436,0.655-0.499,0.9,0.028c0.146,0.315,0.193,0.688,0.233,1.042
		c0.518,4.644,1.018,9.289,1.548,13.931c0.075,0.661,0.244,1.321,0.739,1.884c0.308-1.364,0.585-2.582,0.062-4.117
		c-0.345-1.011-0.503-2.688,0.019-3.729c0.698-1.394,0.913-2.788,1.073-4.242c0.119-1.085,0.416-2.115,0.778-3.128
		c0.128-0.358,0.308-0.836,0.789-0.777c0.492,0.06,0.514,0.553,0.55,0.949c0.33,3.541,0.716,7.079,0.924,10.626
		c0.044,0.746,1.037,1.329,0.157,2.143c1.46,0.031,1.467-0.133,1.543-1.629c0.194-3.767,0.681-7.505,1.419-11.208
		c0.105-0.531,0.43-0.743,0.931-0.73c0.624,0.016,0.539,0.504,0.513,0.878c-0.248,3.444,0.098,6.844,0.735,10.223
		c0.069,0.368-0.141,0.602-0.27,0.886c-0.271,0.601-0.172,1.177,0.181,1.707c0.289,0.435,0.729,0.19,1.107,0.188
		c0.315-0.002,0.402-0.202,0.354-0.483c-0.396-2.299,0.636-4.404,0.912-6.613c0.237-1.901,0.649-3.781,1.005-5.666
		c0.097-0.512,0.254-1.165,0.902-1.06c0.562,0.092,0.508,0.742,0.485,1.212c-0.118,2.484,0.223,4.938,0.411,7.404
		c0.074,0.971,0.354,2.031-0.319,2.957c-0.125,0.172-0.106,0.388,0.083,0.533c0.184,0.142,0.381,0.104,0.549-0.029
		c0.341-0.269,0.745-0.486,0.855-0.961c0.806-3.503,1.613-7.006,2.415-10.511c0.016-0.068-0.033-0.151-0.078-0.338
		c-1.061,0.944-1.936,0.394-2.899-0.361c0.707-0.477,1.303-0.915,2.18-0.536c0.3,0.13,0.713,0.144,1.031,0.056
		c0.91-0.253,1.349,0.027,1.332,0.989c-0.035,2.073-0.091,4.145-0.148,6.217c-0.043,1.532,0.662,2.994,0.305,4.558
		c0.705-0.662,0.841-1.51,1.038-2.305c0.763-3.069,1.848-6.037,2.762-9.059c0.119-0.395,0.164-1.059,0.651-1.017
		c0.578,0.05,0.533,0.715,0.538,1.18c0.021,2.011-0.102,4.016-0.796,5.922c-0.351,0.963,0.526,1.708,0.291,2.667
		c1.711-3.797,3.545-7.47,5.459-11.136c-0.341,1.818-0.302,3.675-0.804,5.424c-0.413,1.441,0.147,3.057-0.862,4.376
		c-0.134,0.174-0.025,0.551,0.198,0.622c0.354,0.111,0.431-0.265,0.546-0.498c1.011-2.039,2.002-4.088,3.028-6.119
		c0.163-0.323,0.268-0.922,0.741-0.781c0.385,0.114,0.305,0.659,0.336,1.063c0.071,0.909,0.212,1.812,0.361,3.021
		c1.064-2.045,1.594-4.058,2.785-5.776c0.697,0.61,0.064,1.664,0.769,2.481c0.339-1.033,0.592-1.899,0.914-2.74
		c0.133-0.346,0.216-0.907,0.69-0.869c0.521,0.042,0.521,0.625,0.662,1.025c0.077,0.217-0.105,0.482,0.225,0.762
		c0.505-1.139,0.994-2.246,1.503-3.394c0.622,0.372,0.703,0.774,0.531,1.359c-1.295,4.405-2.422,8.857-3.838,13.23
		c-0.823,2.542-1.415,5.167-2.727,7.522c-1.681,3.017-3.786,5.62-7.157,6.898c-0.221,0.084-0.409,0.25-0.623,0.357
		c-0.345,0.172-0.649,0.644-1.048,0.428c-0.38-0.206-0.097-0.65-0.061-0.992c0.021-0.199,0.047-0.429-0.167-0.525
		c-0.296-0.133-0.418,0.104-0.541,0.318c-0.176,0.305-0.188,0.704-0.604,0.976c-0.366-1.057-1.089-0.422-1.661-0.294
		c-0.73,0.164-1.014,0.861-0.953,1.488c0.084,0.871-0.383,1.176-1.036,1.323c-2.594,0.587-5.129,1.445-7.844,1.465
		c-2.633,0.019-5.266,0.024-7.901,0.129c-2.923,0.116-5.841-0.227-8.537-1.509c-0.945-0.45-1.954-0.314-2.921-0.566
		c-1.862-0.486-3.649-1.188-5.275-2.144c-2.771-1.628-5.864-2.876-7.899-5.516c-1.728-2.242-3.455-4.411-4.306-7.311
		c-0.95-3.237-1.133-6.505-1.575-9.773c-0.309-2.275-0.439-4.589-1.422-6.724c-0.114-0.249-0.17-0.526-0.233-0.795
		c-0.015-0.061,0.056-0.141,0.15-0.361c0.491,0.949,0.938,1.812,1.464,2.83c0.358-0.581,0.153-0.984,0.083-1.378
		c-0.036-0.201-0.072-0.427,0.146-0.524c0.293-0.13,0.452,0.104,0.548,0.32c0.419,0.949,0.808,1.912,1.231,2.859
		c0.155,0.347,0.215,0.803,0.724,0.866c-0.104,0.766,0.117,1.479,0.373,2.177c0.091,0.25,0.27,0.54,0.615,0.354
		c0.279-0.149,0.347-0.455,0.208-0.719C490.948,115.588,490.627,114.932,490.07,114.439z M518.602,130.015
		c0.042-0.587,0.092-0.905,0.08-1.22c-0.015-0.42-0.306-0.547-0.664-0.452c-0.306,0.081-0.934,0.017-0.756,0.495
		c0.315,0.845-0.027,1.526-0.235,2.27c-0.104,0.374,0.028,0.748,0.381,0.916c0.361,0.173,0.414-0.26,0.604-0.428
		C518.578,131.093,518.636,130.433,518.602,130.015z M494.917,124.992c0.194-1.18,0.495-2.334-0.013-3.444
		c-0.127-0.277-0.278-0.702-0.644-0.562c-0.367,0.14-0.25,0.647-0.081,0.824c0.44,0.458,0.307,0.988,0.378,1.505
		C494.635,123.879,494.794,124.433,494.917,124.992z M507.669,133.484c0.234-0.002,0.446-0.161,0.379-0.344
		c-0.195-0.527-0.687-0.826-1.127-1.114c-0.181-0.119-0.312,0.189-0.243,0.389C506.847,132.911,507.082,133.365,507.669,133.484z"/>
	<path fill-rule="evenodd" clip-rule="evenodd" fill="#FFFFFF" d="M497.842,72.38c0.346,0.579,0.991,0.31,1.433,0.537
		c0.502,0.257,0.896,0.562,1.324,0.908c0.608,0.491,1.168,1.06,2.208,0.489c1.246-0.683,2.527,0.73,2.253,2.35
		c-0.211,1.243,0.11,1.742,1.3,1.369c2.451-0.769,3.963,0.178,5.065,2.234c0.575,1.072,1.438,1.071,2.538,0.971
		c3.117-0.284,6.19-1.169,9.377-0.66c1.216,0.194,2.466,0.053,3.703-0.127c1.577-0.229,3.176-0.423,4.738,0.143
		c0.979,0.355,1.783-0.299,2.622-0.544c2.275-0.664,4.408-1.681,6.118-3.399c1.334-1.341,2.268-2.938,2.729-4.764
		c0.178-0.699,0.479-0.608,0.926-0.411c1.279,0.563,2.17,1.556,2.116,2.931c-0.053,1.338,0.781,1.84,1.638,2.359
		c2.013,1.219,4.093,2.325,6.101,3.549c1.022,0.624,1.923,1.461,2.635,2.419c0.672,0.903,1.242,1.933,0.074,2.962
		c-0.292,0.257-0.244,0.641-0.135,1.012c0.076,0.261,0.143,0.585-0.172,0.747c-0.311,0.16-0.502-0.129-0.733-0.271
		c-1.827-1.12-3.671-2.211-5.625-3.098c-0.464-0.21-0.983-0.802-1.503-0.215c-0.542,0.614-0.847,1.365-0.48,2.215
		c0.504,1.174,0.992,2.356,1.528,3.515c0.515,1.114,0.739,2.269,0.706,3.491c-0.045,1.619-0.576,2.277-2.139,2.761
		c-2.532,0.783-4.888,0.038-7.247-0.754c-0.453-0.152-0.897-0.348-1.361-0.45c-2.222-0.489-3.088,0.284-3.247,2.524
		c-0.335,4.695-4.468,8.615-9.536,7.185c-2.789-0.787-4.611-2.621-5.982-5.006c-0.554-0.962-0.9-2.043-1.352-3.065
		c-0.128-0.291-0.218-0.703-0.448-0.825c-1.777-0.938-3.45-2.222-5.664-1.843c-0.674,0.115-1.152,0.512-1.626,0.951
		c-2.301,2.129-4.812,3.854-8.067,4.09c-2.823,0.205-5.354-0.27-6.92-3.008c-0.435-0.761-0.656-1.514-0.532-2.394
		c0.16-1.138,0.502-2.235,0.601-3.4c0.058-0.677,0.887-1.266,1.287-1.943c0.247-0.419,0.781-0.869,0.437-1.397
		c-0.376-0.578-1.021-0.304-1.543-0.179c-2.136,0.515-4.261,1.082-6.397,1.595c-1.021,0.245-2.151,0.776-2.999-0.272
		c-0.846-1.047-0.759-2.73,0.07-3.953c1.036-1.53,2.604-2.32,4.251-2.977c0.809-0.322,1.758-1.642,1.777-2.474
		c0.01-0.396-0.285-0.4-0.5-0.557c-0.284-0.207-0.348-0.585-0.228-0.874c0.179-0.429,0.54-0.151,0.821-0.081
		c0.442,0.11,0.741,0.4,1.041,0.75c0.651,0.763,1.344,0.614,1.776-0.291c0.236-0.494,0.504-0.911,1.109-1.153
		c0.695-0.277,0.991-0.863,0.538-1.684C497.921,73.781,497.676,73.11,497.842,72.38z"/>
	<path fill-rule="evenodd" clip-rule="evenodd" fill="#FFFFFF" d="M511.113,58.41c0.732-0.659,1.653-0.812,2.5-0.837
		c0.566-0.017,0.778-0.103,0.688-0.593c-0.141-0.771,0.678-1.125,0.7-1.804c0.66,0.116,1.021-0.574,1.502-0.651
		c1.47-0.238,2.055-1.623,3.21-2.244c0.365-0.196,0.268-0.674,0.169-1.094c-0.318-1.355,0.041-1.801,1.382-2.333
		c1.449-0.576,2.951-1.042,4.043-2.342c0.796-0.947,2.494-0.881,3.452-0.058c2.663,2.291,3.403,5.35,3.521,8.693
		c0.051,1.473-0.511,2.816-0.643,4.236c-0.062,0.681-0.99,1.435,0.078,2.084c0.015,0.009-0.021,0.15-0.065,0.196
		c-1.253,1.252-1.625,3.395-3.961,3.571c-1.203,0.091-1.977,1.299-3.053,1.848c-0.489,0.25-0.977,0.603-1.417,0.326
		c-1.688-1.061-3.611-0.298-5.375-0.777c-0.499-0.135-1.086-0.092-1.626-0.25c-0.499-0.146-1.111-0.322-1.524-0.051
		c-1.188,0.779-2.408,0.444-3.554,0.125c-1.063-0.296-1.545-1.372-2.122-2.253c-0.445-0.681-0.296-1.773-1.465-1.973
		c-0.299-0.051-0.106-0.486,0.011-0.735c0.316-0.663,0.736-1.375,1.542-1.204c0.646,0.137,1.165-0.051,1.737-0.158
		c0.078-0.015,0.192,0.011,0.231-0.033c0.321-0.366,1.042-0.332,1.113-0.855C512.277,58.585,511.426,58.841,511.113,58.41z
		 M529.658,57.359c1.086-1.778,0.965-2.265-0.377-3.605c-0.573-0.572-1.007-1.06-1.885-0.759c-0.222,0.076-0.531,0.071-0.6-0.364
		c-0.109-0.696-0.806-0.356-1.176-0.456c-0.424-0.113-0.185,0.554-0.233,0.829c-0.1,0.559,0.048,1.124,0.24,1.715
		c0.232,0.715,0.227,1.005,1.041,0.763c0.368-0.109,0.688-0.076,1.045-0.056c0.939,0.054,1.516,0.251,0.507,1.283
		C528.832,56.816,529.33,56.917,529.658,57.359z M508.825,61.229c0.316,0.495,0.617,0.741,0.576,1.259
		c-0.035,0.45,0.475,0.999,0.966,0.629c0.712-0.537,1.208-1.322,1.652-2.352C510.868,61.116,510.002,61.538,508.825,61.229z"/>
	<path fill-rule="evenodd" clip-rule="evenodd" fill="#FFFFFF" d="M492.886,41.562c1.025,0.318,1.294,1.37,1.795,2.094
		c1.339,1.931,2.976,3.627,4.184,5.667c1.453,2.455,3.039,4.863,4.769,7.111c1.305,1.697,1.631,3.427,1.707,5.375
		c0.023,0.582-0.203,1.078-0.541,1.591c-0.034-1.345-0.456-2.596-0.788-3.866c-0.307-1.173-0.559-1.275-1.509-0.516
		c-0.747,0.596-1.412,1.296-2.268,1.75c-0.174,0.092-0.357,0.184-0.669-0.018c0.631-0.788,1.137-1.734,1.917-2.307
		c0.855-0.628,0.697-1.295,0.28-1.826c-0.691-0.879-1.062-1.862-1.358-2.889c-0.242-0.839-0.641-0.906-1.291-0.439
		c-0.938,0.673-1.843,1.401-2.93,1.837c-0.211,0.084-0.456,0.298-0.644,0.035c-0.158-0.222-0.007-0.478,0.161-0.644
		c0.679-0.667,1.344-1.354,2.076-1.959c0.688-0.567,0.796-1.18,0.315-1.878c-0.423-0.614-0.665-1.255-0.656-2.007
		c0.007-0.676-0.547-1.032-0.936-1.475c-1.116-1.272-2.617-2.248-2.973-4.098c-0.123-0.642-0.558-0.336-0.911-0.102
		c-1.061,0.704-2.127,1.4-3.203,2.081c-0.219,0.138-0.457,0.351-0.838,0.123c0.476-0.926,1.384-1.344,2.15-1.93
		c0.74-0.566,1.807-0.731,2.189-1.744L492.886,41.562z"/>
	<path fill-rule="evenodd" clip-rule="evenodd" fill="#FFFFFF" d="M485.283,55.43c0.798-1.432,2.106-2.078,3.274-2.852
		c1.663-1.101,1.689-1.061,0.839-2.732c0.799,0.249,1.808,1.056,2.122,1.895c0.332,0.884,0.864,1.638,1.446,2.326
		c1.813,2.143,3.015,4.692,4.702,6.91c0.682,0.897,0.496,1.479-0.396,2.011c-1.028,0.613-2.008,1.295-2.87,2.138
		c-0.239,0.234-0.512,0.605-0.916,0.35c-0.438-0.277-0.036-0.663-0.012-0.984c0.051-0.636,0.562-0.924,1.101-1.132
		c0.295-0.114,0.606-0.186,0.901-0.301c1.48-0.577,1.695-1.417,0.632-2.543c-0.639-0.676-1.187-1.396-1.464-2.299
		c-0.113-0.366-0.084-0.884-0.58-0.952c-0.566-0.077-0.996,0.295-1.273,0.737c-0.3,0.479-0.574,0.956-1.074,1.255
		c-0.245,0.146-0.498,0.292-0.775,0.097c-0.348-0.244-0.123-0.516,0.028-0.725c0.497-0.688,0.972-1.408,1.753-1.819
		c0.319-0.168,0.241-0.413,0.083-0.576c-0.36-0.371-0.404-0.902-0.831-1.275c-0.639-0.558-1.324-1.145-1.322-2.178
		c0-0.435-0.358-0.587-0.883-0.354c-0.914,0.404-1.418,1.217-2.104,1.847C487.021,54.863,486.357,55.415,485.283,55.43z"/>
	<path fill-rule="evenodd" clip-rule="evenodd" fill="#FFFFFF" d="M494.023,69.512c0.306-0.37-0.66-0.751-0.146-1.248
		c0.623-0.601,1.405-0.491,1.918,0.269c0.154,0.229,0.237,0.507,0.396,0.733c0.943,1.343,1.051,1.564-0.255,2.373
		c-2.132,1.321-4.009,2.973-6.086,4.354c-0.516,0.342-1.108,0.606-1.637,0.081c-0.564-0.562-0.162-1.031,0.197-1.563
		c0.268-0.396,0.74-0.769,0.607-1.365c-0.073-0.329-0.369-0.756,0.15-0.897c0.405-0.11,0.97-0.076,1.2,0.32
		c0.725,1.245,1.344,0.631,1.873-0.097c0.287-0.395,0.613-0.721,0.968-1.033C493.755,70.957,493.953,70.329,494.023,69.512z"/>
	<path fill-rule="evenodd" clip-rule="evenodd" fill="#FFFFFF" d="M490.351,63.739c0.701,0.398,0.98,1.282,1.927,1.477
		c0.476,0.098,0.795,0.675,0.173,1.295c-0.546,0.544-1.105,1.056-1.772,1.398c-1.843,0.943-3.029,2.674-4.697,3.821
		c-0.402,0.277-0.815,0.511-1.307,0.545c-0.766,0.052-0.917-0.492-0.99-1.081c-0.055-0.437-0.314-0.806,0.586-0.847
		c0.682-0.031,0.892-0.988,0.689-1.771c-0.112-0.438-0.472-0.826-0.341-1.417c0.707,0.178,1.03,0.692,1.438,1.102
		c0.99,0.994,1.724,0.929,2.454-0.287c0.316-0.527,0.684-0.935,1.195-1.271c0.625-0.41,1.264-0.839,0.492-1.732
		c-0.304-0.352,0.053-0.838,0.164-1.254L490.351,63.739z"/>
	<path fill-rule="evenodd" clip-rule="evenodd" fill="#FFFFFF" d="M470.393,47.271c0.361,0.202,0.694,0.12,1.005-0.113
		c1.156-0.869,2.481-1.435,3.749-2.104c1.402-0.741,1.405-0.75,0.263-1.812c-0.581-0.54-1.029-1.106-0.603-2.056
		c0.685,0.468,0.954,1.188,1.373,1.772c0.552,0.771,1.096,1.023,1.989,0.441c1.229-0.801,2.38-1.74,3.762-2.299
		c0.646-0.261,0.586-0.667,0.318-1.253c-0.34-0.746-0.939-1.325-1.233-2.102c1.092,0.739,1.85,1.754,2.525,2.837
		c0.138,0.22,0.149,0.453-0.146,0.593c-1.827,0.865-3.404,2.144-5.282,2.973c-1.441,0.638-2.557,2.106-4.114,2.546
		c-1.922,0.542-3.272,1.944-4.973,2.786c-0.179,0.089-0.349,0.194-0.526,0.285c-0.319,0.164-0.623,0.196-0.814-0.179
		c-0.184-0.36,0.108-0.506,0.344-0.648c0.478-0.289,0.951-0.59,1.453-0.83c0.411-0.197,0.778-0.405,0.941-0.857L470.393,47.271z"/>
	<path fill-rule="evenodd" clip-rule="evenodd" fill="#FFFFFF" d="M480.439,59.342c-0.29-0.599,0-0.938,0.54-1.261
		c0.847-0.507,1.744-0.989,2.27-1.887c0.222-0.38,0.479-0.369,0.788-0.152c0.41,0.288,0.31,0.633,0.022,0.911
		c-1.002,0.969-1.956,2.005-3.189,2.696c-1.296,0.727-2.429,1.665-3.551,2.623c-0.182,0.155-0.338,0.36-0.546,0.458
		c-0.481,0.229-1.178,0.407-1.463,0.042c-0.396-0.506,0.346-0.783,0.656-1.026c1.127-0.883,2.352-1.643,3.468-2.54
		C479.922,58.815,480.016,59.508,480.439,59.342z"/>
	<path fill-rule="evenodd" clip-rule="evenodd" fill="#FFFFFF" d="M515.838,48.574c-0.838-0.344-1.901-0.008-2.772-0.649
		c-0.429-0.315-0.699-0.645-0.62-1.185c0.079-0.535,0.557-0.469,0.914-0.604c0.803-0.303,1.652-0.23,2.479-0.338
		c0.188-0.024,0.541-0.071,0.498,0.134c-0.198,0.954,0.354,0.58,0.659,0.359c0.767-0.553,0.848,0.225,0.893,0.536
		c0.07,0.493,0.627,1.225-0.328,1.485C517.03,48.458,516.468,48.483,515.838,48.574z"/>
	<path fill-rule="evenodd" clip-rule="evenodd" fill="#FFFFFF" d="M492.916,41.529c-1.133-0.098-2.889-1.579-3.036-2.813
		c-0.149-1.233-0.576-1.341-1.504-0.719c-0.228,0.152-0.508,0.234-0.884,0.071c0.216-0.761,1.49-0.537,1.443-1.48
		c-0.038-0.75-0.955-1.081-0.902-2.044c2.242,2.009,3.156,4.791,4.852,7.019C492.886,41.562,492.916,41.529,492.916,41.529z"/>
	<path fill-rule="evenodd" clip-rule="evenodd" fill="#FFFFFF" d="M503.372,35.917c0.065,0.522-0.229,0.709-0.452,0.775
		c-2.687,0.795-4.505,3.05-7.01,4.139c-0.575,0.25-1.165,0.466-1.809,0.591C496.823,39.035,499.991,37.394,503.372,35.917z"/>
	<path fill-rule="evenodd" clip-rule="evenodd" fill="#FFFFFF" d="M483.219,63.448c0.48-0.71,1.126-1.05,1.666-1.501
		c0.756-0.631,1.499-1.222,0.938-2.365c-0.085-0.173-0.108-0.421,0.122-0.506c0.113-0.042,0.296,0.048,0.425,0.118
		c0.617,0.333,1.06,0.822,1.149,1.536c0.094,0.747-0.584,0.838-1.026,1.132c-0.626,0.416-1.229,0.868-1.861,1.273
		C484.243,63.384,483.841,63.672,483.219,63.448z"/>
	<path fill-rule="evenodd" clip-rule="evenodd" fill="#FFFFFF" d="M473.701,54.092c0.632-0.001,0.816,0.362,0.505,0.837
		c-0.72,1.096-1.905,1.638-2.986,2.28c-0.245,0.146-0.66-0.042-0.833-0.306c-0.23-0.353,0.187-0.432,0.367-0.606
		c0.591-0.571,1.199-1.126,1.759-1.727C472.85,54.209,473.295,54.233,473.701,54.092z"/>
	<path fill-rule="evenodd" clip-rule="evenodd" fill="#FFFFFF" d="M523.366,45.126c-0.154,0.736-0.478,1.112-1.118,1.237
		c-1.124,0.218-2.102,0.742-2.931,1.536c-0.206,0.198-0.437,0.42-0.731,0.302c-0.369-0.147-0.142-0.475-0.137-0.733
		c0.014-0.752,0.037-1.5,0.55-2.148c0.432,0.312-0.157,1.218,0.698,1.178c0.713-0.033,1.486,0.004,1.898-0.813
		C521.962,44.958,522.65,45.133,523.366,45.126z"/>
	<path fill-rule="evenodd" clip-rule="evenodd" fill="#FFFFFF" d="M482.17,63.771c0.274,0.164,0.978,0.068,0.397,0.712
		c-0.894,0.992-2.08,1.625-3.074,2.496c-0.309,0.271-0.599-0.027-0.806-0.273c-0.177-0.21-0.164-0.477,0.053-0.636
		c1.019-0.749,2.051-1.479,3.084-2.208C481.913,63.799,482.049,63.801,482.17,63.771z"/>
	<path fill-rule="evenodd" clip-rule="evenodd" fill="#FFFFFF" d="M504.338,53.042c-0.611-0.867,1.601-2.962-1.406-2.821
		c0.382-0.722,0.71-1.362,1.058-1.992c0.115-0.21,0.286-0.414,0.554-0.396c0.311,0.02,0.305,0.322,0.381,0.534
		C505.581,50.171,505.429,51.381,504.338,53.042z"/>
	<path fill-rule="evenodd" clip-rule="evenodd" fill="#FFFFFF" d="M499.872,109.057c0.863,0.255,1.568,0.42,2.134,0.872
		c0.244,0.195,0.854,0.199,0.651,0.673c-0.252,0.593-0.754,0.994-1.451,1.089c-0.466,0.064-0.794-0.072-0.904-0.535
		C500.146,110.51,500.032,109.854,499.872,109.057z"/>
	<path fill-rule="evenodd" clip-rule="evenodd" fill="#FFFFFF" d="M491.97,50.667c1.187-1.262,2.586-2.177,4.286-2.601
		C495.123,49.397,493.996,50.734,491.97,50.667z"/>
	<path fill-rule="evenodd" clip-rule="evenodd" fill="#FFFFFF" d="M557.015,100.566c-0.229,1.635-1.544,2.302-2.041,3.481
		c-0.14,0.331-0.93,0.57-1.275,0.198c-0.415-0.446,0.215-0.789,0.489-1.005C555.14,102.492,555.687,101.316,557.015,100.566z"/>
	<path fill-rule="evenodd" clip-rule="evenodd" fill="#FFFFFF" d="M480.527,50.839c-1.436,0.603-1.96,2.156-3.583,2.13
		c-0.348-0.005-0.689,0.481-1.059,0.7c-0.163,0.096-0.422,0.098-0.512-0.122c-0.041-0.103,0.045-0.353,0.142-0.401
		c1.494-0.759,2.793-1.875,4.403-2.417C480.012,50.698,480.138,50.765,480.527,50.839z"/>
	<path fill-rule="evenodd" clip-rule="evenodd" fill="#FFFFFF" d="M486.771,46.562c-1.324,1.324-2.773,2.466-4.633,2.971
		C483.484,48.246,484.905,47.076,486.771,46.562z"/>
	<path fill-rule="evenodd" clip-rule="evenodd" fill="#FFFFFF" d="M506.173,113.364c-0.692,0.012-1.39-0.917-1.202-1.595
		c0.118-0.427,0.464-0.342,0.65-0.183c0.613,0.523,1.777,0.141,2.006,0.989C507.719,112.919,506.795,113.303,506.173,113.364z"/>
	<path fill-rule="evenodd" clip-rule="evenodd" fill="#FFFFFF" d="M491.749,105.405c0.06-0.356-0.002-0.882,0.42-0.736
		c0.636,0.219,1.56,0.38,1.661,1.105c0.072,0.524-0.65,1.079-1.253,1.053C491.677,106.789,492.071,105.828,491.749,105.405z"/>
	<path fill-rule="evenodd" clip-rule="evenodd" fill="#FFFFFF" d="M540.286,112.927c-0.512-0.254-1.656,0.058-1.612-0.826
		c0.028-0.557,1.153-0.666,1.824-0.786c0.557-0.1,0.714,0.404,0.653,0.889C541.097,112.639,541.047,113.134,540.286,112.927z"/>
	<path fill-rule="evenodd" clip-rule="evenodd" fill="#FFFFFF" d="M495.938,107.744c-0.024-0.439-0.024-0.882,0.479-0.813
		c0.728,0.099,1.244,0.571,1.302,1.321c0.05,0.641-0.509,0.925-1.013,0.897C495.752,109.095,496.126,108.208,495.938,107.744z"/>
	<path fill-rule="evenodd" clip-rule="evenodd" fill="#FFFFFF" d="M483.088,55.071c-0.016,0.265-0.168,0.321-0.401,0.266
		c-0.598-0.142-1.976-2.5-1.794-3.098c0.079-0.261,0.273-0.232,0.479-0.128C481.842,52.351,483.13,54.565,483.088,55.071z"/>
	<path fill-rule="evenodd" clip-rule="evenodd" fill="#FFFFFF" d="M521.959,114.291c0.548-0.166,1.035-0.302,1.515-0.462
		c0.47-0.157,0.867-0.032,1.189,0.308c0.303,0.318,0.055,0.583-0.148,0.825c-0.32,0.381-0.693,0.696-1.229,0.469
		C522.739,115.198,522.276,114.847,521.959,114.291z"/>
	<path fill-rule="evenodd" clip-rule="evenodd" fill="#FFFFFF" d="M513.386,113.577c-0.065,0.12-0.106,0.23-0.177,0.315
		c-0.623,0.752-2.213,0.471-2.595-0.454c-0.099-0.239-0.149-0.543,0.196-0.505c0.779,0.086,1.549,0.259,2.318,0.414
		C513.222,113.366,513.293,113.491,513.386,113.577z"/>
	<path fill-rule="evenodd" clip-rule="evenodd" fill="#FFFFFF" d="M470.423,47.25c-1.409-0.096-1.917-1.266-2.61-2.206
		c-0.147-0.2-0.184-0.479,0.062-0.636c0.374-0.239,0.573,0.047,0.761,0.32c0.582,0.85,1.168,1.699,1.755,2.545
		C470.393,47.271,470.423,47.25,470.423,47.25z"/>
	<path fill-rule="evenodd" clip-rule="evenodd" fill="#FFFFFF" d="M500.577,68.122c-0.772,0.482-1.545,0.964-2.316,1.448
		c-0.22,0.138-0.451,0.228-0.608-0.053c-0.118-0.209,0.022-0.39,0.19-0.511C498.642,68.432,499.427,67.816,500.577,68.122z"/>
	<path fill-rule="evenodd" clip-rule="evenodd" fill="#FFFFFF" d="M533.488,113.74c0.603-0.273,1.056-0.497,1.523-0.685
		c0.301-0.122,0.641-0.15,0.881,0.11c0.174,0.188,0.077,0.451,0.006,0.675c-0.109,0.347-0.362,0.514-0.717,0.479
		C534.643,114.266,534.098,114.215,533.488,113.74z"/>
	<path fill-rule="evenodd" clip-rule="evenodd" fill="#FFFFFF" d="M516.74,114.135c0.423-0.364,0.795-0.187,1.136-0.222
		c0.372-0.038,0.858-0.289,1.078,0.146c0.193,0.382-0.252,0.614-0.509,0.835c-0.393,0.34-0.809,0.291-1.167-0.063
		C517.086,114.641,516.943,114.402,516.74,114.135z"/>
	<path fill-rule="evenodd" clip-rule="evenodd" fill="#FFFFFF" d="M502.449,42.301c-1.028-0.614-1.742-1.468-2.154-2.572
		C501.003,40.604,502.236,41.021,502.449,42.301z"/>
	<path fill-rule="evenodd" clip-rule="evenodd" fill="#FFFFFF" d="M552.38,105.175c0.245,0.33,0.251,0.663,0.129,0.946
		c-0.225,0.523-0.78,0.481-1.229,0.585c-0.117,0.027-0.379-0.089-0.388-0.163c-0.062-0.497,0.406-0.625,0.689-0.867
		C551.815,105.476,552.107,105.342,552.38,105.175z"/>
	<path fill-rule="evenodd" clip-rule="evenodd" fill="#FFFFFF" d="M489.384,104.286c-0.5-0.104-0.491-0.547-0.536-0.916
		c-0.033-0.261-0.024-0.631,0.396-0.56c0.559,0.095,0.439,0.779,0.814,1.081C490.121,103.942,489.659,104.179,489.384,104.286z"/>
	<path fill-rule="evenodd" clip-rule="evenodd" fill="#FFFFFF" d="M495.825,32.841c-0.749-0.419-1.197-0.871-1.477-1.494
		c-0.08-0.179-0.227-0.371-0.024-0.53c0.203-0.161,0.383-0.007,0.479,0.165C495.117,31.546,495.617,32.016,495.825,32.841z"/>
	<path fill-rule="evenodd" clip-rule="evenodd" fill="#FFFFFF" d="M486.601,38.697c-0.032,0.518-0.511,0.44-0.794,0.578
		c-0.335,0.163-0.695,0.881-1.025,0.308c-0.218-0.377,0.505-0.601,0.858-0.792C485.907,38.645,486.242,38.347,486.601,38.697z"/>
	<path fill-rule="evenodd" clip-rule="evenodd" fill="#FFFFFF" d="M490.362,63.716c-0.275,0.248-0.587,0.423-0.956,0.254
		c-0.402-0.184-0.304-0.677-0.536-0.985c-0.113-0.149,0.092-0.275,0.256-0.288c0.414-0.033,0.638,0.186,0.758,0.573
		c0.067,0.218,0.188,0.432,0.463,0.473C490.351,63.739,490.362,63.716,490.362,63.716z"/>
	<path fill-rule="evenodd" clip-rule="evenodd" fill="#FFFFFF" d="M544.756,110.395c0.025,0.355-0.164,0.517-0.492,0.51
		c-0.323-0.007-0.712-0.078-0.744-0.432c-0.043-0.457,0.414-0.519,0.745-0.584C544.631,109.815,544.723,110.098,544.756,110.395z"/>
	<path fill-rule="evenodd" clip-rule="evenodd" fill="#FFFFFF" d="M477.39,46.179c0.592,0.224,0.81,0.659,0.8,1.203
		c-0.004,0.217-0.276,0.35-0.451,0.221C477.27,47.259,477.214,46.771,477.39,46.179z"/>
	<path fill-rule="evenodd" clip-rule="evenodd" fill="#FFFFFF" d="M558.722,99.055c-0.077,0.32-0.328,0.43-0.613,0.458
		c-0.263,0.026-0.509-0.063-0.415-0.387c0.075-0.258,0.229-0.538,0.562-0.526C558.513,98.609,558.687,98.774,558.722,99.055z"/>
	<path fill-rule="evenodd" clip-rule="evenodd" fill="none" d="M518.602,130.015c0.034,0.418-0.023,1.079-0.59,1.581
		c-0.19,0.168-0.243,0.601-0.604,0.428c-0.353-0.167-0.485-0.542-0.381-0.916c0.208-0.744,0.551-1.425,0.235-2.27
		c-0.178-0.478,0.45-0.414,0.756-0.495c0.358-0.095,0.649,0.031,0.664,0.452C518.693,129.11,518.644,129.427,518.602,130.015z"/>
	<path fill-rule="evenodd" clip-rule="evenodd" fill="none" d="M494.917,124.992c-0.123-0.559-0.282-1.112-0.359-1.678
		c-0.071-0.517,0.062-1.047-0.378-1.505c-0.169-0.177-0.286-0.684,0.081-0.824c0.365-0.139,0.517,0.285,0.644,0.562
		C495.412,122.657,495.111,123.812,494.917,124.992z"/>
	<path fill-rule="evenodd" clip-rule="evenodd" fill="none" d="M490.07,114.439c0.557,0.493,0.878,1.149,1.214,1.79
		c0.139,0.264,0.071,0.57-0.208,0.719c-0.346,0.185-0.524-0.104-0.615-0.354c-0.256-0.699-0.477-1.411-0.373-2.177
		C490.09,114.413,490.07,114.439,490.07,114.439z"/>
	<path fill-rule="evenodd" clip-rule="evenodd" fill="none" d="M507.669,133.484c-0.587-0.12-0.822-0.573-0.991-1.069
		c-0.068-0.199,0.062-0.507,0.243-0.389c0.44,0.288,0.932,0.586,1.127,1.114C508.115,133.324,507.903,133.482,507.669,133.484z"/>
	<path fill-rule="evenodd" clip-rule="evenodd" fill="none" d="M529.658,57.359c-0.328-0.442-0.826-0.542-1.438-0.649
		c1.009-1.032,0.433-1.229-0.507-1.283c-0.356-0.021-0.677-0.054-1.045,0.056c-0.814,0.242-0.809-0.048-1.041-0.763
		c-0.192-0.592-0.34-1.157-0.24-1.715c0.049-0.275-0.19-0.942,0.233-0.829c0.37,0.099,1.066-0.24,1.176,0.456
		c0.068,0.435,0.378,0.44,0.6,0.364c0.878-0.3,1.312,0.188,1.885,0.759C530.623,55.094,530.744,55.581,529.658,57.359z"/>
	<path fill-rule="evenodd" clip-rule="evenodd" fill="none" d="M508.825,61.229c1.177,0.309,2.043-0.113,3.194-0.464
		c-0.444,1.029-0.94,1.815-1.652,2.352c-0.491,0.37-1.001-0.179-0.966-0.629C509.442,61.971,509.142,61.725,508.825,61.229z"/>
</g>
</svg>
