<?xml version="1.0" encoding="utf-8"?>
<!-- Generator: Adobe Illustrator 16.0.4, SVG Export Plug-In . SVG Version: 6.00 Build 0)  -->
<!DOCTYPE svg PUBLIC "-//W3C//DTD SVG 1.1//EN" "http://www.w3.org/Graphics/SVG/1.1/DTD/svg11.dtd">
<svg version="1.1" id="Layer_1" xmlns="http://www.w3.org/2000/svg" xmlns:xlink="http://www.w3.org/1999/xlink" x="0px" y="0px"
	 width="288px" height="288px" viewBox="0 0 288 288" enable-background="new 0 0 288 288" xml:space="preserve">
<g>
	<path fill-rule="evenodd" clip-rule="evenodd" fill="#FFFFFF" d="M480.404,157.364c-0.822-0.168-1.418-0.472-1.706-1.354
		c-0.679,2.077-1.284,2.302-2.906,1.276c-2.079-1.314-3.722-1.006-5.83,0.659c-0.761,0.601-2.018,0.446-2.991,0.938
		c-0.619,0.313-1.18,0.534-1.281,1.288c-0.135,1.012-0.608,0.53-0.929,0.17c-0.241-0.271-0.552-0.753-0.46-1.006
		c0.561-1.546-0.138-2.124-1.528-2.582c-0.734-0.242,0.367-1.015-0.032-1.677c-0.752,0.285-1.596,0.416-1.112,1.604
		c0.076,0.188,0.154,0.518,0.062,0.606c-0.616,0.592-1.123,1.418-1.684,1.867c-1.185,0.948-2.18,1.975-2.992,3.218
		c-0.271,0.415-0.518,0.988-1.082,0.754c-0.626-0.261-0.229-0.892-0.135-1.304c0.229-0.999,0.279-0.974-0.718-1.008
		c-0.383-0.014-0.253-0.762-0.793-0.633c0.059,1.04,0.536,2.361,0.073,3.005c-0.666,0.926-1.574-0.509-2.551-0.562
		c-1.396-0.075-2.973-0.297-3.725-1.987c-0.078,0.938-0.469,1.723-0.295,2.642c0.329,1.737,2.094,1.839,3.09,2.815
		c1.632,1.6,2.471-0.559,3.506-1.187c0.615-0.374,0.825-0.62,0.856,0.149c0.062,1.537,1.782,2.302,1.602,3.998
		c-0.138,1.293-0.229,2.309,2.07,2.578c2.046,0.24,2.368,1.201,4.248-0.044c0.595-0.395,1.238-0.344,1.867-0.46
		c1-0.185,0.513,0.89,0.889,1.106c1.541,0.895,3.174,1.607,4.341,3.077c0.219,0.276,0.968-0.171,1.266-0.717
		c0.739-1.353,1.526-1.503,2.319-0.279c0.786,1.211,1.044,0.74,1.441-0.188c0.171-0.401,0.465-0.812,0.94-0.216
		c0.63,0.787,1.457,0.478,2.056,0.121c1.147-0.682,1.783-0.464,2.137,0.791c0.283,1.01,0.825,0.887,1.388,0.255
		c0.649-0.73,1.214-1.538,1.879-2.253c1.952-2.097,4.009-1.667,5.024,0.977c0.455,1.182,0.612,2.422,0.915,3.634
		c0.18,0.723,0.291,1.796,1.113,1.804c0.772,0.007,1.827,0.083,2.395-0.859c0.332-0.553,0.845-0.83,1.519-0.736
		c1.063,0.148,1.408-0.301,0.782-1.651c1.648,1.166,2.026,0.665,1.524-0.968c1.223,0.64,2.196,0.921,2.992-0.21
		c0.185-0.263,0.544-0.297,0.835,0.047c0.355,0.419,0.479,1.512,1.11,1.133c1.259-0.755,3.014-0.052,3.992-1.549
		c0.432-0.66,1.107-1.203,1.768-1.663c1.292-0.902,2.6-0.573,3.444,0.771c0.84,1.337,1.711,2.642,2.806,3.802
		c1.696,1.796,4.257,2.223,6.572,0.998c0.14-0.074,0.311-0.214,0.43-0.183c2.393,0.634,4.212-0.844,6.206-1.668
		c0.147-0.062,0.376-0.232,0.419-0.193c1.878,1.744,1.591-0.549,2.186-1.171c0.187-0.196,0.343-0.424,0.496-0.648
		c2.631-3.872,3.193-3.918,6.68-0.693c1.872,1.733,3.68,3.58,6.183,4.435c0.577,0.197,1.406,0.848,1.728,0.09
		c0.263-0.618-0.136-1.531-0.526-2.233c-0.046-0.083-0.173-0.14-0.273-0.17c-1.146-0.342-1.995-1.168-2.971-1.823
		c0.687-0.45,1.611-0.655,2.181-0.31c1.933,1.175,3.145-0.591,4.652-1.012c0.529-0.147,0.721-1.102,0.44-1.939
		c0.999,0.203,1.755,0.751,2.667,0.496c0.651-0.183,0.686,0.266,0.665,0.767c-0.019,0.446,0.087,1.012,0.623,0.954
		c0.605-0.065,0.107-0.624,0.207-0.918c0.348-1.019,0.644-2.096,1.214-2.989c0.634-0.993,1.713-0.809,2.657-0.396
		c1.568,0.688,2.857,1.81,4.065,2.976c1.347,1.301,3.025,2.124,4.43,3.328c0.183,0.157,0.494,0.163,0.745,0.238
		c0.304-1.867,2.873-0.689,3.344-2.535c0.194-0.763,2.936-1.073,3.752-0.716c0.571,0.25,0.535,0.59,0.388,1.043
		c-0.123,0.38-0.22,0.787,0.29,0.947c0.547,0.172,0.906-0.202,0.94-0.642c0.139-1.81,1.774-2.906,2.103-4.688
		c0.165-0.893,1.27-1.524,2.491-1.374c1.257,0.154,2.198,0.894,3.231,1.483c1.086,0.62,2.171,1.243,3.283,1.812
		c1.075,0.549,2.129,1.136,2.94-0.503c0.367-0.742,1.276-0.741,1.812-0.114c0.999,1.173,1.572,0.276,1.998-0.411
		c0.566-0.916,0.932-1.958,1.346-2.962c0.327-0.793,0.672-1.238,1.516-0.481c0.379,0.339,0.867,0.059,0.79-0.376
		c-0.225-1.275,0.521-1.954,1.51-2.464c-0.668-0.75-1.517,0.301-2.111-0.625c1.907-0.42,3.545,0.024,5.131,0.9
		c2.278,1.26,4.594,2.453,6.851,3.749c1.063,0.61,1.525,0.211,1.999-0.737c0.606-1.216,1.347-2.363,1.812-3.651
		c0.109-0.302,0.262-0.811,0.44-0.833c1.978-0.236,1.488-1.937,1.675-3.042c0.16-0.954,0.557-0.707,1.02-0.554
		c2.293,0.758,4.583,1.525,6.856,2.339c0.939,0.336,1.55,0.053,2.058-0.742c0.591-0.922,1.085-1.887,1.422-2.928
		c1.135-3.501,2.931-4.231,6.301-2.609c1.129,0.544,2.127,0.75,2.657-0.918c0.243-0.765,0.957-1.459,1.612-1.999
		c1.702-1.401,2.729-3.209,3.48-5.224c0.199-0.532,0.538-0.978,1.113-1.109c1.388-0.319,2.016-1.526,3.106-2.522
		c-2.778,0.295-3.009-1.686-3.597-3.458c-1.024-3.084-1.716-6.311-3.706-9.012c-0.592-0.803-0.675-1.571,0.284-2.399
		c0.904-0.781,1.531-1.062,2.475-0.154c0.749,0.72,1.736,0.555,2.644,0.34c1.165-0.276,2.138-0.142,2.896,0.897
		c0.595,0.814,1.753,0.495,2.469,1.144c0.44,0.4,1.08,0.684,0.91,1.401c-0.167,0.702-0.845,0.568-1.362,0.607
		c-0.706,0.054-1.305,0.184-1.369,1.06c-0.056,0.764,0.07,1.397,0.885,1.729c0.703,0.288,1.393,0.618,2.065,0.97
		c0.59,0.31,1.066,0.727,1.224,1.441c0.475,2.163,1.835,3.384,4.032,3.616c0.88,0.093,1.585,0.357,1.935,1.238
		c0.15,0.379,0.595,0.767,0.083,1.147c-0.397,0.295-0.834,0.138-1.214-0.127c-0.267-0.186-0.496-0.471-0.79-0.567
		c-0.776-0.254-1.646,0.426-1.416,0.815c0.7,1.193,0.045,2.97,1.652,3.734c0.543,0.259,1.101,0.644,0.813,1.389
		c-0.283,0.738-0.738,1.406-1.648,1.334c-0.732-0.059-1.199,0.125-1.629,0.765c-0.565,0.841-1.537,0.656-2.399,0.655
		c-0.393-0.001-0.796-0.037-0.877,0.486c-0.055,0.357,0.114,0.607,0.407,0.82c1.556,1.133,3.357,0.696,4.131-1.025
		c0.159-0.354,0.052-1.125,0.641-0.856c0.619,0.281,0.054,0.867-0.14,1.25c-1.745,3.448-3.427,6.933-5.313,10.303
		c-1.576,2.814-2.7,5.824-4.122,8.702c-5.354,10.835-8.388,22.492-12.004,33.946c-1.702,5.393-3.64,10.711-5.378,16.094
		c-1.303,4.035-2.434,8.126-3.688,12.178c-0.818,2.646-1.881,5.227-2.557,7.905c-2.108,8.358-5.297,16.35-8.038,24.493
		c-0.904,2.686-2.331,4.923-4.265,6.838c-1.85,1.831-3.777,3.604-5.648,5.408c-3.085,2.975-6.902,4.876-10.19,7.534
		c-1.218,0.984-2.91,1.441-4.446,1.959c-4.338,1.463-8.607,2.981-12.375,5.747c-1.438,1.057-3.322,1.662-5.096,2.076
		c-5.342,1.248-10.625,2.742-16.057,3.629c-8.927,1.456-17.901,2.575-26.926,2.883c-10.596,0.36-21.199,0.991-31.814,0.367
		c-3.718-0.218-7.344-0.99-10.952-1.751c-4.273-0.901-8.679-0.868-12.895-2.003c-5.104-1.374-10.334-2.075-15.512-3.061
		c-3.364-0.642-6.265-2.372-9.31-3.835c-5.1-2.451-9.805-5.633-15.002-7.882c-0.397-0.172-0.857-0.304-1.152-0.592
		c-4.001-3.914-8.587-7.225-12.031-11.715c-1.27-1.655-1.382-3.773-2.349-5.533c-3.276-5.958-4.891-12.533-7.109-18.887
		c-0.817-2.339-2.044-4.494-2.55-6.992c-1.094-5.402-3.9-10.253-5.228-15.616c-2.344-9.467-6.205-18.433-9.469-27.595
		c-1.569-4.403-2.947-8.884-4.708-13.209c-1.845-4.53-4.071-8.904-6.086-13.368c-2.744-6.08-7.021-11.411-8.782-17.972
		c-0.184-0.683-0.404-1.355-0.586-2.039c-0.211-0.791-0.2-1.439,0.707-1.9c0.74-0.376,0.921-1.141,0.771-1.982
		c-0.123-0.691-0.166-1.397-0.225-2.1c-0.062-0.749,0.138-1.235,1.046-1.263c1.615-0.048,2.069-1.043,2.038-2.531
		c-0.048-2.319,0.143-2.487,2.421-2.92c1.502-0.286,2.019-1.229,1.427-2.605c-0.566-1.318-0.001-2.347,1.416-2.507
		c0.816-0.093,1.615,0.039,2.416,0.269c0.995,0.286,2.011,0.052,2.304-0.985c0.832-2.944,3.484-3.411,5.729-4.455
		c0.441-0.205,0.938-0.302,1.36-0.536c1.285-0.709,1.615-1.864,0.686-2.986c-4.331-5.225-4.692-11.335-4.267-17.725
		c0.316-4.752,0.94-9.414,2.407-13.954c0.371-1.151,0.729-2.284,1.679-3.114c0.65-0.568,0.632-1.376,0.648-2.122
		c0.022-1.073,0.327-2.037,0.861-2.941c0.241-0.408,0.434-0.979,1.041-0.875c0.538,0.093,0.744,0.61,0.881,1.083
		c0.468,1.62,0.919,3.244,1.354,4.873c0.432,1.614,1.522,2.81,2.746,3.772c1.641,1.29,3.351,0.196,4.935-0.368
		c2.71-0.965,4.349-3.388,6.532-5.077c0.215-0.167,0.396-0.374,0.608-0.544c1.698-1.365,2.102-1.2,2.568,0.969
		c0.845,3.93,1.991,7.814,1.684,11.909c-0.038,0.502,0.259,0.921,0.479,1.364c0.8,1.608,1.514,3.225,1.473,5.109
		c-0.031,1.495,0.858,2.664,1.864,3.683c2.332,2.363,3.542,4.93,2.992,8.478c-0.689,4.456,0.957,8.455,3.867,11.852
		c1.073,1.252,1.252,2.495,0.999,4.062c-0.257,1.588-0.208,3.248,0.205,4.833c0.325,1.248,1.23,2.064,2.431,2.439
		c1.138,0.355,1.776-0.457,2.423-1.234c0.448-0.539,0.578-1.064,0.177-1.625c-0.519-0.727-0.739,0.004-1.108,0.237
		c-0.565,0.357-0.733-0.229-0.975-0.549c-1.242-1.648-0.749-3.754-1.513-5.562c1.135,0.894,2.196,1.784,2.698,3.138
		c0.215,0.578,0.417,1.199,1.179,1.133c0.709-0.062,0.422-0.76,0.627-1.15c0.935-1.781,1.427-3.607,0.806-5.604
		c1.434-0.412-0.941-2.481,1.576-2.516c-2.019-1.152-2.919-2.375-1.563-4.245c0.231-0.318-0.106-0.631-0.351-0.827
		c-1.74-1.4-2.18-3.54-2.727-5.456c-0.843-2.947-2.293-5.618-3.291-8.484c-1.625-4.669-3.439-9.272-5.169-13.905
		c-0.409-1.098-0.209-2.268-0.373-3.399c-0.646-4.458-0.532-8.915,0.03-13.38c0.214-1.702,1.209-2.903,2.275-4.041
		c0.962-1.026,1.589-2.053,1.209-3.493c-0.191-0.723-0.032-1.396,0.292-2.054c1.851-3.758,3.497-7.589,4.274-11.742
		c0.416-2.224,1.689-3.5,3.904-4.306c1.597-0.581,3.3-1.042,4.798-2.159c0.979-0.73,2.843-0.135,3.894,0.792
		c1.138,1.003,2.437,1.595,3.742,2.216c1.183,0.562,1.404,1.277,0.638,2.311c-2.11,2.846-4.003,5.824-5.643,8.97
		c-0.461,0.885-0.782,1.788-1.006,2.743c-0.242,1.034-0.45,1.998,0.758,2.696c0.392,0.226,0.534,0.915,0.748,1.411
		c0.841,1.958,3.095,4.058,5.594,4.093c1.038,0.015,1.582,1.273,2.926,1.323c-0.331-1.758-0.977-3.332-1.863-4.764
		c-0.868-1.402-1.119-2.798-0.665-4.354c1.045-3.587,1.051-7.438,2.751-10.861c0.323-0.653,0.219-1.58,1.15-1.831
		c0.455-0.122,0.927-0.018,1.122,0.437c0.369,0.858,0.629,1.733,0.053,2.645c-0.876,1.384-1.648,2.813-1.933,4.466
		c-0.316,1.836-0.102,2.189,1.695,2.605c1.018,0.236,2.222,0.172,2.581,1.558c0.039,0.148,0.48,0.302,0.712,0.272
		c1.744-0.225,1.651,0.788,1.472,2.007c-0.216,1.458-0.227,2.935,0.116,4.384c0.122,0.519,0.264,1.24,0.893,1.22
		c0.761-0.024,0.75-0.832,0.82-1.39c0.096-0.753,0.047-1.522,0.097-2.283c0.059-0.875,0.421-1.04,1.129-0.469
		c1.327,1.069,1.498,2.608,1.653,4.119c0.121,1.184,0.002,2.38,0.536,3.52c0.211,0.451,0.344,1.239-0.643,0.974
		c-1.073-0.289-0.957,0.211-0.747,0.922c1.731,5.87,5.781,9.109,12.727,8.464c0.476-0.044,0.952-0.238,1.507,0.033
		c-0.994,1.121-0.418,1.708,0.51,2.631c1.543,1.538,3.365,2.75,5.198,3.615c2.931,1.382,5.136,3.716,7.953,5.229
		c1.848,0.993,3.169,2.931,5.062,4.037c1.271,0.743,2.182,2.019,3.318,2.764c2.809,1.841,5.046,4.27,7.532,6.433
		c3.167,2.754,6.379,5.44,8.979,8.819c2.511,3.261,5.479,6.165,8.074,9.364c3.795,4.676,8.367,8.699,11.504,13.936
		c0.932,1.555,2.634,2.525,3.927,3.828c2.257,2.276,4.087,4.96,6.621,6.961c0.677,0.535,0.432,1.172,0.214,1.78
		c-0.276,0.775-0.842,0.606-1.48,0.461c-0.911-0.208-1.867-0.411-2.735,0.224c-0.124,0.091-0.343,0.198-0.447,0.149
		c-2.097-0.988-4.259,0.179-6.349-0.209c-0.801-0.149-1.163-1.131-2.065-1.419c-1.082-0.346-1.964-0.557-2.773,0.433
		c-0.172,0.211-0.345,0.622-0.742,0.197c-0.874-0.935-2.141-1.017-3.237-1.101c-1.302-0.099-2.555,0.385-3.867-0.531
		c-0.467-0.325-1.875,0.218-2.615,0.466c-2.018,0.673-4.366-0.425-6.125,1.236c-0.099,0.093-0.317,0.104-0.473,0.086
		c-0.93-0.11-1.691-0.114-2.389,0.819c-0.797,1.069-1.742,0.867-2.375-0.371c-0.149-0.292-0.285-0.974-0.71-0.583
		c-0.532,0.49-0.909,1.212-1.167,1.902c-0.103,0.273,0.609-0.122,0.803,0.41c-0.715,0.371-1.359,0.861-2.281,0.286
		c-0.602-0.375-1.106-0.055-1.187,0.607c-0.118,0.979-0.248,1.789-1.497,1.961c-1.341,0.186-2.354-0.09-2.955-1.377
		c-0.045-0.097-0.11-0.183-0.178-0.293c0.323-0.424,0.795,0.598,1.024-0.072c0.112-0.329-0.186-0.759-0.471-0.758
		c-1.807,0.001-3.048-1.982-5.015-1.387c-0.777,0.236-1.576,0.412-2.375,0.566c-0.828,0.159-1.731,0.776-2.253-0.621
		c-0.215-0.576-2.37-0.324-2.789,0.273c-0.198,0.283-0.344,0.582-0.721,0.54c-0.658-0.074-0.066-0.477-0.157-0.719
		c-0.233-0.623-2.12-0.561-2.737,0.146c-0.279,0.32-0.446,0.737-0.743,1.245c-0.454-0.998-1.452-0.729-2.183-1.13
		C478.832,158.345,479.111,157.968,480.404,157.364z M595.008,173.733c2.043-0.698,2.985-2.471,2.197-4.12
		c-0.17-0.355-0.359-0.781-0.816-0.556c-0.473,0.233-0.311,0.653,0.006,0.931c0.959,0.838,0.356,1.548-0.161,2.26
		c-0.38,0.521-0.99,0.866-1.186,1.53c-0.503-0.17-1.384-0.775-0.868,0.505c0.225,0.559-0.353,1.953,0.885,1.604
		c0.95-0.267-0.161-1.188-0.043-1.831C595.041,173.953,595.014,173.841,595.008,173.733z M468.339,149.865
		c1.887-0.376,3.788-0.969,5.277-2.585c2.416-2.623,1.503-5.642,0.829-8.456c-0.207-0.868,0.914-2.535-1.008-2.85
		c-0.001-1.734-1.359-2.615-2.287-3.811c-1.66-2.141-3.029-4.511-4.726-6.62c-1.137-1.412-2.094-3.059-3.87-3.899
		c-0.621-0.294-1.335-0.95-1.079-1.668c0.497-1.397-0.421-2.107-1.081-3.005c-1.771-2.412-3.806-4.625-5.581-7.014
		c-5.605-7.54-11.426-14.953-15.877-23.278c-3.799-7.106-4.469-14.289-0.468-21.632c1.241-2.278,2.647-4.519,3.339-7.067
		c0.448-1.653-0.2-2.402-1.91-2.217c-1.608,0.173-2.83,1.095-3.846,2.269c-3.442,3.979-6.012,8.466-6.921,13.672
		c-0.488,2.798-1.092,5.801,0.214,8.52c0.825,1.72,1.896,3.362,2.498,5.166c1.037,3.106,2.381,6.076,3.679,9.067
		c3.377,7.777,6.771,15.548,10.228,23.29c0.928,2.078,2.04,4.069,3.39,5.938c1.265,1.751,2.915,3.361,3.481,5.459
		c0.547,2.029,1.304,3.909,2.373,5.676c2.273,3.758,4.622,7.472,6.899,11.228C463.335,148.425,465.479,149.566,468.339,149.865z
		 M455.362,83.861c-0.437,1.938-0.3,3.486,0.27,4.539c3.939,7.28,8.589,14.074,13.86,20.456c6.615,8.009,13.071,16.15,19.79,24.069
		c3.521,4.149,6.407,8.81,10.267,12.66c2.08,2.075,3.951,4.245,5.451,6.789c0.814,1.382,2.017,2.555,3.15,3.72
		c0.375,0.385,0.899,0.509,0.511,1.186c-0.151,0.262-0.044,0.548,0.287,0.639c0.281,0.078,0.503,0.046,0.603-0.32
		c0.586-2.161,2.47-2.976,4.194-3.886c4.729-2.495,6.209-6.396,4.32-10.979c-1.295-3.142-3.458-5.65-5.753-8.042
		c-4.187-4.363-8.732-8.318-13.495-12.062c-6.835-5.372-13.386-11.103-20.216-16.48C470.214,99.546,462.259,92.517,455.362,83.861z
		 M403.208,103.96c0-1.099-0.08-2.167-0.563-3.184c-0.327-0.69-0.764-1.236-1.583-1.164c-0.816,0.071-1.233,0.691-1.379,1.417
		c-0.236,1.178-0.346,2.414-0.076,3.567c0.468,1.999,0.092,3.887-0.437,5.772c-0.266,0.946-0.227,1.823,0.187,2.692
		c0.639,1.344,1.784,1.566,2.826,0.531c0.448-0.446,0.539-1.078,0.558-1.667C402.826,109.264,402.78,106.599,403.208,103.96z
		 M470.471,94.368c-0.009,1.46,3.294,4.263,4.717,4.004c1.779-0.324,2.717-1.979,1.69-3.194c-1.006-1.191-2.197-2.256-3.79-2.67
		C471.773,92.167,470.478,93.098,470.471,94.368z M643.036,139.301c-0.031,0.641,0.068,1.214,0.829,1.356
		c1.045,0.196,1.494,0.98,1.868,1.844c0.347,0.802,0.618,1.735,1.817,1.252c0.36-0.146,0.91-2.739,0.613-2.927
		c-1.051-0.666-1.372-1.919-2.279-2.691c-0.517-0.441-1.031-0.849-1.732-0.5C643.482,137.968,643.092,138.535,643.036,139.301z
		 M394.316,167.619c0.104,0.626,0.077,1.31,0.833,1.264c1.089-0.067,2.795-3.062,2.405-4.094c-0.215-0.568-0.605-0.568-1.035-0.311
		C395.293,165.216,394.602,166.324,394.316,167.619z M641.964,154.765c-0.266,0.888-0.139,1.954-0.909,2.541
		c-0.843,0.641-1.616-0.702-2.583-0.319c1.287,1.074,2.584,1.502,3.968,1.337c1.017-0.121,1.592-1.331,1.009-2.248
		C643.106,155.539,642.674,155.033,641.964,154.765z M627.501,163.237c1.157,0.624,2.38,1.126,3.38,0.288
		c0.812-0.682,1.006-1.797,0.563-2.844c-0.358-0.849-0.944-1.51-2.142-2.057c0.603,1.509,1.089,2.538,1.416,3.617
		c0.173,0.569-0.456,0.676-0.854,0.741C629.084,163.113,628.289,163.158,627.501,163.237z M410.242,170.714
		c-0.119-0.699,0.138-1.823-0.745-1.91c-0.915-0.09-1.37,0.855-1.444,1.826c-0.079,1.023,0.372,1.88,1.312,1.907
		C410.539,172.571,409.881,171.351,410.242,170.714z M612.307,169.188c1.053,0.067,1.605,0.798,2.354,0.241
		c1.053-0.783,1.535-3.09,0.863-4.18c-0.18-0.292-0.389-0.576-0.759-0.473c-0.483,0.135-0.44,0.554-0.371,0.939
		C614.828,168.112,614.793,168.183,612.307,169.188z M442.163,158.979c-0.222,0.59-0.469,1.186-0.663,1.8
		c-0.083,0.264,0.002,0.566,0.283,0.692c0.337,0.15,0.504,0.002,0.468-0.372c-0.061-0.616,0.411-0.505,0.765-0.551
		c0.179-0.024,0.402,0.046,0.343,0.215c-0.12,0.338,0.075,0.798-0.36,1.017c-0.704,0.354-1.409,0.706-2.176,1.089
		c1.267,0.875,2.191,0.341,2.82-0.622C444.702,160.623,444.016,159.547,442.163,158.979z M385.123,164.395
		c0.797-0.401,1.304-1.07,1.472-1.926c0.083-0.419-0.29-1.038-0.692-0.883c-0.887,0.341-1.652,1.063-2.006,1.905
		C383.704,163.95,384.614,164.111,385.123,164.395z M445.774,177.241c0.139-1.04,0.429-2.08-0.267-3.046
		c-0.142-0.195-0.428-0.021-0.523,0.179c-0.51,1.064-0.209,1.994,0.519,2.838C445.526,177.239,445.599,177.225,445.774,177.241z
		 M645.377,146.479c-0.832-0.244-1.213-1.359-2.297-1.387c-0.344-0.008-0.452,0.305-0.348,0.571c0.409,1.045,1.471,1.076,2.327,1.4
		C645.249,147.136,645.417,146.893,645.377,146.479z M424.981,174.931c0.632-0.967,0.166-1.892,0.521-2.678
		c0.088-0.193,0.022-0.454-0.24-0.499c-0.357-0.062-0.484,0.236-0.499,0.494C424.718,173.074,424.405,173.923,424.981,174.931z"/>
	<path fill-rule="evenodd" clip-rule="evenodd" fill="#FFFFFF" d="M513.016,44.148c0.307-3.997-0.436-8.064,0.589-12.01
		c0.845-3.249,1.876-6.451,2.886-9.654c0.138-0.434,0.23-1.234,0.977-1.08c0.633,0.131,0.739,0.802,0.672,1.34
		c-0.528,4.252,0.849,8.459,0.34,12.686c-0.353,2.933,1.241,5.145,2.584,7.337c0.557,0.909,2.265,1.208,3.167,2.236
		c0.164,0.188,0.521,0.005,0.733-0.184c1.215-1.076,1.428-0.426,1.647,0.802c0.283,1.58,0.995,3.188,2.251,4.087
		c1.391,0.995,2.179,2.247,2.75,3.702c0.39,0.994,1.033,1.772,1.64,2.598c1.544,2.104,3.093,4.205,4.64,6.308
		c1.381,1.878,2.667,3.837,4.163,5.618c2.964,3.527,5.885,7.087,8.726,10.715c0.604,0.772,0.893,1.488,0.342,2.364
		c-0.611,0.973-1.564,0.995-2.459,0.637c-2.091-0.835-4.045-2.067-5.536-3.669c-2.344-2.518-5.039-4.546-7.722-6.633
		c-2.321-1.806-4.628-3.62-6.78-5.65c-2.405-2.268-5.186-4.131-7.509-6.508c-1.409-1.442-2.989-2.67-4.602-3.866
		c-1.742-1.292-2.207-3.336-2.812-5.21C513.086,48.21,512.729,46.198,513.016,44.148z"/>
	<path fill-rule="evenodd" clip-rule="evenodd" fill="#FFFFFF" d="M533.174,122.291c1.01-0.497,1.837,0.071,2.316,0.339
		c2.131,1.189,4.53,0.408,6.587,1.074c2.212,0.717,4.457,0.363,6.584,0.937c1.797,0.485,3.336,1.77,4.562,3.052
		c1.946,2.034,4.213,3.786,5.831,6.121c0.953,1.375,2.342,2.262,3.515,3.388c3.068,2.941,5.226,6.673,8.351,9.562
		c1.117,1.032,2.214,2.089,3.341,3.11c0.562,0.509,0.964,1.049,0.708,1.849c-0.243,0.759-0.975,1.139-1.562,1.321
		c-1.054,0.328,0.104-0.749-0.529-0.915c-1.904,1.979-4.281,1.324-6.562,0.847c-1.251-0.261-2.789,0.251-3.699-1.146
		c-1.459,1.156-2.575-0.995-4.111-0.405c-0.651,0.25-1.988,0.676-2.577-0.656c-0.014-0.03-1.508-1.068-1.557,0.505
		c-0.008,0.281,0.151,0.59-0.249,0.569c-0.426-0.021-0.51-0.474-0.398-0.748c0.366-0.904,0.734-1.825,1.249-2.648
		c1.82-2.912,1.494-5.556-0.562-8.266c-2.312-3.045-5.257-5.342-8.238-7.625c-3.624-2.775-7.393-5.364-10.768-8.457
		C534.737,123.488,533.801,123.205,533.174,122.291z"/>
	<path fill-rule="evenodd" clip-rule="evenodd" fill="#FFFFFF" d="M585.322,145.271c-0.257,0.566-0.453,0.999-0.671,1.479
		c-1.179-0.564-1.436-1.382-0.984-2.542c1.736-4.472,1.342-6.268-3.449-10.102c-3.323-2.659-7.277-4.342-10.583-7.014
		c-0.252-0.203-0.574-0.346-0.766-0.593c-0.339-0.437-1.128-0.777-0.702-1.472c0.519-0.845,1.004-0.009,1.496,0.175
		c2.133,0.799,4.286,1.547,6.396,2.405c2.537,1.033,5.02,2.205,7.562,3.228c1.69,0.68,3.332,1.317,4.931,2.312
		c2.581,1.607,4.145,3.992,5.801,6.284c1.158,1.602,2.591,2.882,3.868,4.333c0.671,0.762,0.708,0.97-0.292,1.604
		c-1.834,1.164-3.478,0.93-5.397,0.372c-1.375-0.4-2.961,0.134-4.349-0.668c-0.362-0.21-0.475,0.335-0.722,0.499
		C586.739,146.05,585.982,146.51,585.322,145.271z"/>
	<path fill-rule="evenodd" clip-rule="evenodd" fill="#FFFFFF" d="M542.217,46.217c-0.929,0.467-1.688,0.415-2.431,0.482
		c-1.165,0.106-2.743-0.246-2.222,1.895c0.071,0.294-0.17,0.667-0.554,0.686c-0.343,0.016-0.426-0.299-0.421-0.579
		c0.019-0.923-0.52-1.353-1.32-1.617c-0.233-0.077-0.471-0.292-0.604-0.507c-2.5-4.063-5.682-7.676-7.926-11.902
		c-1.188-2.239-0.676-4.671-0.463-7.03c0.073-0.815,0.682-1.189,1.351-0.446c1.922,2.135,4.932,2.918,6.604,5.361
		c0.206,0.301,0.569,0.698,0.865,0.703c1.709,0.03,1.303,1.223,1.378,2.242C536.795,39.831,538.059,43.687,542.217,46.217z"/>
	<path fill-rule="evenodd" clip-rule="evenodd" fill="#FFFFFF" d="M503.908,30.857c-1.1,3.479-2.162,6.775-3.181,10.084
		c-0.593,1.924-0.375,3.913-0.078,5.829c0.631,4.071,1.123,8.292,4.112,11.461c2.606,2.762,4.438,6.115,7.233,8.949
		c-1.188-0.156-2.056-0.564-2.794-1.318c-2.095-2.137-4.423-3.937-6.952-5.583c-2.081-1.354-3.812-3.32-4.742-5.819
		c-0.329-0.881-0.113-1.291,0.696-1.542c-0.355-0.578-0.887-0.278-1.245-0.475c-1.186-0.653-2.574-1.029-2.368-2.953
		c0.209-1.946,0.541-3.718,1.545-5.497c1.021-1.808,2.095-3.616,2.865-5.61C500.057,35.645,501.408,32.952,503.908,30.857z"/>
	<path fill-rule="evenodd" clip-rule="evenodd" fill="#FFFFFF" d="M610.729,138.583c-1.971-0.25-3.854-0.449-5.753-0.225
		c-1.078,0.127-1.494-0.331-1.341-1.42c0.12-0.857,0.094-1.734,0.181-2.597c0.219-2.183-0.775-3.787-2.442-5.023
		c-1.019-0.755-1.902-1.61-2.596-2.667c-0.95-1.449-2.659-1.829-3.935-2.81c-0.673-0.518-2.169-0.962-1.675-1.817
		c0.493-0.854,1.626,0.099,2.418,0.52c0.048,0.025,0.089,0.071,0.14,0.083c3.113,0.707,5.605,2.696,8.396,4.068
		c0.098,0.048,0.199,0.115,0.302,0.119c4.438,0.178,5.841,4.004,8.097,6.782c0.468,0.577,0.699,1.345,1.046,2.021
		c0.732,1.431,0.358,2.232-1.202,2.595C611.792,138.343,611.279,138.754,610.729,138.583z"/>
	<path fill-rule="evenodd" clip-rule="evenodd" fill="#FFFFFF" d="M484.256,40.266c0.511,0.58,0.211,1.068,0.158,1.514
		c-0.664,5.606-0.239,10.933,3.499,15.578c0.825,1.025,1.865,2.199,1.053,3.91c-5.153-4.835-10.909-7.776-18.23-5.49
		c0.324-2.291,0.181-2.58-2.035-3.372c-0.796-0.285-0.723-0.639-0.212-0.969c0.744-0.48,1.346-1.087,1.95-1.708
		c0.492-0.506,1.053-0.562,1.606-0.127c1.173,0.92,2.502,1.6,3.169,3.146c0.466,1.078,1.299,2.131,2.932,1.642
		c0.634-0.189,0.885-0.3,0.914-0.993c0.034-0.81,0.267-1.631,0.939-2.187c0.483-0.399,0.297-0.834,0.26-1.326
		C479.964,46.016,481.483,42.916,484.256,40.266z"/>
	<path fill-rule="evenodd" clip-rule="evenodd" fill="#FFFFFF" d="M625.295,127.621c-0.023,0.161-0.128,0.388-0.058,0.475
		c1.539,1.904-0.021,2.986-1.007,4.338c-0.571,0.783-1.129,1.095-2.014,1.007c-0.108-0.011-0.237,0.01-0.321-0.041
		c-0.852-0.512-2.045,0.672-2.554-0.184c-0.615-1.033-1.041-2.376-0.995-3.564c0.104-2.719-0.87-4.985-2.277-7.169
		c-0.261-0.404-0.643-0.863-0.287-1.338c0.413-0.551,1.003-0.269,1.496-0.073c2.127,0.844,4.262,1.682,5.681,3.642
		c0.32,0.441,0.725,0.794,1.275,0.973C625.174,125.992,625.448,126.698,625.295,127.621z"/>
	<path fill-rule="evenodd" clip-rule="evenodd" fill="#FFFFFF" d="M515.944-11.126c0.608,1.771,0.507,3.047-0.43,4.311
		c-0.725,0.979-0.543,2.303-0.941,3.433c-0.359,1.024-0.872,1.737-1.926,2.24c-1.64,0.781-2.3,2.539-3.271,3.952
		c-1.32,1.921-2.536,3.915-3.759,5.9c-0.499,0.812-1.175,1.415-1.928,1.959c-1.732,1.251-2.272,1.104-3.007-0.787
		c-0.119-0.305-0.052-0.547,0.161-0.732c1.436-1.248,2.196-3.155,4.325-3.778c1.096-0.32,1.672-1.753,2.444-2.731
		C510.896-1.513,513.2-6.252,515.944-11.126z"/>
	<path fill-rule="evenodd" clip-rule="evenodd" fill="#FFFFFF" d="M466.138,50.936c-0.548-0.159-1.199,0.144-1.66-0.455
		c-0.285-0.37-0.712-0.239-1.025,0.017c-1.507,1.233-3.224,2.264-4.019,4.19c-0.248,0.602-0.53,1.249-1.344,1.229
		c-0.502-0.011-0.733-0.417-0.937-0.812c-0.413-0.803,0.232-1.202,0.665-1.655c0.976-1.021,1.915-2.056,2.715-3.239
		c1.412-2.089,4.915-2.55,6.972-1.065c0.548,0.394,0.463,0.812,0.286,1.275C467.549,51.053,467.411,51.08,466.138,50.936z"/>
	<path fill-rule="evenodd" clip-rule="evenodd" fill="#FFFFFF" d="M415.984,50.694c-0.035-0.777,0.254-1.28,1.109-1.253
		c0.677,0.021,3.058,2.141,3.075,2.713c0.021,0.664-1.703,2.377-2.439,2.427C416.904,54.636,415.954,52.518,415.984,50.694z"/>
	<path fill-rule="evenodd" clip-rule="evenodd" fill="#FFFFFF" d="M544.547,58.432c0.862,2.165,2.801,2.66,4.315,3.713
		c0.348,0.242,1.19-0.005,0.986,0.744c-0.164,0.603-0.622,1.164-1.381,1.2C547.024,64.159,544.103,60.291,544.547,58.432z"/>
	<path fill-rule="evenodd" clip-rule="evenodd" fill="#FFFFFF" d="M461.92,163.52c1.361,0.059,1.908,0.868,1.954,1.672
		c0.06,1.028-1.041,1.5-1.809,1.521c-0.828,0.021-1.241-0.927-1.203-1.729C460.897,164.233,461.144,163.434,461.92,163.52z"/>
	<path fill-rule="evenodd" clip-rule="evenodd" fill="#FFFFFF" d="M442.506,46.087c-0.032,0.55-0.126,1.282-0.743,1.411
		c-0.771,0.162-0.797-0.688-1.029-1.191c-0.088-0.192-0.136-0.407-0.18-0.616c-0.198-0.938-0.034-1.923,0.972-2.043
		c0.917-0.11,0.761,0.939,0.873,1.583C442.444,45.496,442.466,45.763,442.506,46.087z"/>
	<path fill-rule="evenodd" clip-rule="evenodd" fill="#FFFFFF" d="M460.374,63.315c-0.246-0.443-0.401-0.721-0.553-1
		c-0.507-0.933-0.726-1.919-0.254-2.906c0.126-0.265,0.496,0.002,0.619,0.239c0.524,1.007,2.276,1.791,0.614,3.218
		C460.682,62.968,460.583,63.093,460.374,63.315z"/>
	<path fill-rule="evenodd" clip-rule="evenodd" fill="#FFFFFF" d="M418.144,66.867c0.174,1.347-0.376,2.384-0.536,3.472
		c-0.062,0.418-0.422,0.683-0.854,0.386c-0.437-0.3-1.073-0.697-0.715-1.276C416.584,68.571,417.103,67.617,418.144,66.867z"/>
	<path fill-rule="evenodd" clip-rule="evenodd" fill="#FFFFFF" d="M482.655,164.129c-0.413-0.076-0.141-0.745-0.74-0.824
		c-0.476-0.063-0.885-0.596-0.768-1.223c0.042-0.227,0.434-0.379,0.48-0.258c0.257,0.661,1.313,0.33,1.375,1.129
		C483.033,163.351,483.195,163.834,482.655,164.129z"/>
	<path fill-rule="evenodd" clip-rule="evenodd" fill="#FFFFFF" d="M564.541,48.334c0.127,1.041-0.599,1.368-0.866,1.945
		c-0.229,0.493-0.537,0.152-0.777-0.014c-0.319-0.219-0.433-0.505-0.051-0.776C563.37,49.117,563.907,48.764,564.541,48.334z"/>
	<path fill-rule="evenodd" clip-rule="evenodd" fill="#FFFFFF" d="M532.912,158.854c-0.059,0.696-0.55,0.902-1.096,0.981
		c-0.304,0.045-0.602-0.271-0.415-0.478c0.394-0.434-0.093-1.291,0.644-1.43C532.667,157.811,532.754,158.429,532.912,158.854z"/>
	<path fill-rule="evenodd" clip-rule="evenodd" fill="#FFFFFF" d="M487.401,163.098c0.757-0.595,1.272-1.001,1.831-1.439
		C489.427,163.14,489.299,163.256,487.401,163.098z"/>
	<path fill-rule="evenodd" clip-rule="evenodd" fill="#FFFFFF" d="M462.041,168.668c0.811-0.232,1.091,0.111,1.235,0.641
		c0.108,0.396,0.476,0.99-0.021,1.147c-0.726,0.229-0.439-0.494-0.474-0.841C462.738,169.182,462.263,169.102,462.041,168.668z"/>
	<path fill-rule="evenodd" clip-rule="evenodd" fill="none" d="M468.339,149.865c-2.86-0.299-5.004-1.44-6.446-3.819
		c-2.277-3.756-4.626-7.469-6.899-11.228c-1.069-1.767-1.826-3.646-2.373-5.676c-0.566-2.098-2.217-3.708-3.481-5.459
		c-1.35-1.868-2.462-3.859-3.39-5.938c-3.457-7.742-6.851-15.512-10.228-23.29c-1.298-2.991-2.642-5.96-3.679-9.067
		c-0.603-1.804-1.673-3.446-2.498-5.166c-1.306-2.718-0.702-5.722-0.214-8.52c0.909-5.206,3.479-9.693,6.921-13.672
		c1.016-1.174,2.237-2.096,3.846-2.269c1.71-0.185,2.358,0.564,1.91,2.217c-0.691,2.548-2.098,4.789-3.339,7.067
		c-4.001,7.344-3.331,14.526,0.468,21.632c4.451,8.325,10.271,15.739,15.877,23.278c1.775,2.388,3.811,4.602,5.581,7.014
		c0.66,0.898,1.578,1.608,1.081,3.005c-0.256,0.719,0.458,1.374,1.079,1.668c1.776,0.84,2.733,2.487,3.87,3.899
		c1.696,2.109,3.065,4.479,4.726,6.62c0.928,1.195,2.286,2.076,2.287,3.811c1.922,0.315,0.801,1.982,1.008,2.85
		c0.674,2.814,1.587,5.833-0.829,8.456C472.127,148.896,470.226,149.489,468.339,149.865z"/>
	<path fill-rule="evenodd" clip-rule="evenodd" fill="none" d="M455.362,83.861c6.896,8.656,14.852,15.685,23.239,22.288
		c6.83,5.377,13.381,11.108,20.216,16.48c4.763,3.744,9.309,7.699,13.495,12.062c2.295,2.392,4.458,4.9,5.753,8.042
		c1.889,4.584,0.408,8.484-4.32,10.979c-1.725,0.91-3.608,1.725-4.194,3.886c-0.1,0.366-0.321,0.398-0.603,0.32
		c-0.331-0.091-0.438-0.377-0.287-0.639c0.389-0.677-0.136-0.801-0.511-1.186c-1.134-1.165-2.336-2.338-3.15-3.72
		c-1.5-2.544-3.371-4.714-5.451-6.789c-3.859-3.85-6.746-8.51-10.267-12.66c-6.719-7.919-13.175-16.061-19.79-24.069
		c-5.271-6.382-9.921-13.176-13.86-20.456C455.062,87.348,454.926,85.799,455.362,83.861z"/>
	<path fill-rule="evenodd" clip-rule="evenodd" fill="none" d="M403.208,103.96c-0.428,2.639-0.382,5.304-0.468,7.963
		c-0.019,0.589-0.109,1.221-0.558,1.667c-1.042,1.036-2.188,0.813-2.826-0.531c-0.413-0.869-0.452-1.746-0.187-2.692
		c0.528-1.885,0.904-3.773,0.437-5.772c-0.27-1.153-0.16-2.389,0.076-3.567c0.146-0.726,0.562-1.345,1.379-1.417
		c0.819-0.072,1.256,0.474,1.583,1.164C403.128,101.792,403.208,102.861,403.208,103.96z"/>
	<path fill-rule="evenodd" clip-rule="evenodd" fill="none" d="M470.471,94.368c0.007-1.27,1.303-2.202,2.617-1.86
		c1.593,0.414,2.784,1.479,3.79,2.67c1.026,1.215,0.089,2.871-1.69,3.194C473.765,98.631,470.462,95.828,470.471,94.368z"/>
	<path fill-rule="evenodd" clip-rule="evenodd" fill="none" d="M643.035,139.301c0.057-0.767,0.447-1.333,1.117-1.666
		c0.701-0.349,1.216,0.059,1.732,0.5c0.907,0.772,1.229,2.025,2.279,2.691c0.297,0.188-0.253,2.781-0.613,2.927
		c-1.199,0.483-1.471-0.45-1.817-1.252c-0.374-0.864-0.823-1.648-1.868-1.844C643.104,140.515,643.005,139.942,643.035,139.301z"/>
	<path fill-rule="evenodd" clip-rule="evenodd" fill="none" d="M394.316,167.619c0.285-1.295,0.977-2.403,2.203-3.141
		c0.43-0.258,0.82-0.258,1.035,0.311c0.39,1.031-1.316,4.026-2.405,4.094C394.394,168.929,394.421,168.245,394.316,167.619z"/>
	<path fill-rule="evenodd" clip-rule="evenodd" fill="none" d="M641.964,154.765c0.71,0.269,1.143,0.774,1.484,1.311
		c0.583,0.917,0.008,2.127-1.009,2.248c-1.384,0.165-2.681-0.263-3.968-1.337c0.967-0.383,1.74,0.96,2.583,0.319
		C641.825,156.719,641.698,155.652,641.964,154.765z"/>
	<path fill-rule="evenodd" clip-rule="evenodd" fill="none" d="M627.501,163.237c0.788-0.079,1.583-0.124,2.364-0.254
		c0.397-0.065,1.026-0.172,0.854-0.741c-0.327-1.079-0.813-2.108-1.416-3.617c1.197,0.547,1.783,1.208,2.142,2.057
		c0.442,1.047,0.249,2.162-0.563,2.844C629.881,164.363,628.658,163.861,627.501,163.237z"/>
	<path fill-rule="evenodd" clip-rule="evenodd" fill="none" d="M410.242,170.714c-0.361,0.637,0.297,1.857-0.877,1.823
		c-0.94-0.027-1.392-0.884-1.312-1.907c0.074-0.971,0.529-1.916,1.444-1.826C410.38,168.891,410.123,170.015,410.242,170.714z"/>
	<path fill-rule="evenodd" clip-rule="evenodd" fill="none" d="M612.307,169.188c2.486-1.005,2.521-1.075,2.087-3.472
		c-0.069-0.386-0.112-0.805,0.371-0.939c0.37-0.104,0.579,0.181,0.759,0.473c0.672,1.09,0.189,3.396-0.863,4.18
		C613.912,169.985,613.359,169.255,612.307,169.188z"/>
	<path fill-rule="evenodd" clip-rule="evenodd" fill="none" d="M442.163,158.979c1.853,0.567,2.539,1.644,1.479,3.268
		c-0.629,0.963-1.554,1.497-2.82,0.622c0.767-0.383,1.472-0.734,2.176-1.089c0.436-0.219,0.24-0.679,0.36-1.017
		c0.06-0.169-0.164-0.239-0.343-0.215c-0.354,0.046-0.825-0.065-0.765,0.551c0.036,0.374-0.131,0.522-0.468,0.372
		c-0.281-0.126-0.366-0.429-0.283-0.692C441.694,160.165,441.941,159.569,442.163,158.979z"/>
	<path fill-rule="evenodd" clip-rule="evenodd" fill="none" d="M385.123,164.395c-0.509-0.283-1.419-0.444-1.227-0.903
		c0.354-0.842,1.119-1.564,2.006-1.905c0.402-0.155,0.775,0.464,0.692,0.883C386.427,163.324,385.92,163.993,385.123,164.395z"/>
	<path fill-rule="evenodd" clip-rule="evenodd" fill="none" d="M595.05,173.78c0.193-0.666,0.804-1.011,1.184-1.532
		c0.518-0.712,1.12-1.422,0.161-2.26c-0.316-0.277-0.479-0.697-0.006-0.931c0.457-0.226,0.646,0.2,0.816,0.556
		c0.788,1.649-0.154,3.422-2.197,4.12L595.05,173.78z"/>
	<path fill-rule="evenodd" clip-rule="evenodd" fill="none" d="M445.774,177.241c-0.176-0.017-0.248-0.002-0.271-0.029
		c-0.728-0.844-1.028-1.773-0.519-2.838c0.096-0.199,0.382-0.374,0.523-0.179C446.203,175.161,445.913,176.201,445.774,177.241z"/>
	<path fill-rule="evenodd" clip-rule="evenodd" fill="none" d="M645.377,146.479c0.04,0.413-0.128,0.656-0.317,0.585
		c-0.856-0.324-1.918-0.355-2.327-1.4c-0.104-0.267,0.004-0.579,0.348-0.571C644.164,145.12,644.545,146.235,645.377,146.479z"/>
	<path fill-rule="evenodd" clip-rule="evenodd" fill="none" d="M595.008,173.733c0.006,0.107,0.033,0.22,0.014,0.323
		c-0.118,0.643,0.993,1.564,0.043,1.831c-1.237,0.349-0.66-1.046-0.885-1.604c-0.516-1.28,0.365-0.675,0.869-0.504
		C595.05,173.78,595.008,173.733,595.008,173.733z"/>
	<path fill-rule="evenodd" clip-rule="evenodd" fill="none" d="M424.981,174.931c-0.576-1.008-0.264-1.856-0.218-2.683
		c0.015-0.258,0.142-0.556,0.499-0.494c0.263,0.045,0.328,0.306,0.24,0.499C425.147,173.039,425.613,173.964,424.981,174.931z"/>
</g>
</svg>
