<?xml version="1.0" encoding="utf-8"?>
<!-- Generator: Adobe Illustrator 16.0.4, SVG Export Plug-In . SVG Version: 6.00 Build 0)  -->
<!DOCTYPE svg PUBLIC "-//W3C//DTD SVG 1.1//EN" "http://www.w3.org/Graphics/SVG/1.1/DTD/svg11.dtd">
<svg version="1.1" id="Layer_1" xmlns="http://www.w3.org/2000/svg" xmlns:xlink="http://www.w3.org/1999/xlink" x="0px" y="0px"
	 width="288px" height="288px" viewBox="0 0 288 288" enable-background="new 0 0 288 288" xml:space="preserve">
<g>
	<path fill-rule="evenodd" clip-rule="evenodd" fill="#FFFFFF" d="M608.024-127.807c1.375,1.102,0.79,2.161,0.932,3.073
		c0.273,1.767,0.926,3.331,2.832,3.673c2.257,0.406,3.446-1.187,3.976-3.008c0.839-2.901,1.993-5.621,3.487-8.232
		c0.647-1.133,0.765-2.963,2.217-3.076c1.722-0.134,2.379,1.757,2.985,2.991c1.752,3.57,3.204,7.286,4.801,10.933
		c0.949,2.167,2.061,4.54,4.21,5.438c8.901,3.721,11.175,11.843,13.313,19.87c2.622,9.833,7.426,17.061,18.469,18.095
		c2.323,0.217,3.013,1.801,3.321,3.723c0.926,5.748,3.979,10.047,8.544,13.591c2.052,1.593,3.873,3.766,5.139,6.043
		c3.533,6.358,6.932,12.754,13.212,17.004c-0.673,0.631-0.903,1.036-1.138,1.039c-10.367,0.089-13.719,3.066-15.194,13.869
		c-1.052,7.707-2.834,15.296-3.011,23.153c-0.129,5.712,0.625,10.836,4.401,15.38c2.944,3.543,3.538,7.431,0.521,11.407
		c-2.655,3.5-0.266,6.755,0.975,9.767c3.566,8.657,9.262,16.07,14.615,23.67c4.191,5.95,7.919,12.211,12.641,17.812
		c1.924,2.282,3.147,3.065,5.493,0.708c2.323-2.336,4.645-5.359,7.538-6.273c3.513-1.112,4.976,3.647,7.961,5.067
		c6.202,2.952,12.231,6.285,17.66,10.574c0.115,0.09,0.387-0.001,0.478,0.095c2.996,3.149,6.775,5.298,11.325,5.21
		c7.303-0.14,14.648,0.1,21.87-1.66c3.315-0.809,4.599-2.241,3.532-5.614c-0.394-1.245-0.52-2.646-0.438-3.957
		c0.443-7.139,0.062-13.866-8.891-16.95c7.482-2.702,10.325-1.011,10.923,5.313c0.016,0.165,0.043,0.334,0.029,0.498
		c-0.963,11.331,2.12,13.856,15.763,13.083c9.941-0.563,19.946-0.288,29.913-0.012c4.329,0.12,6.374,3.298,4.584,7.193
		c-4.787,10.42-9.495,20.933-15.196,30.856c-3.185,5.541-5.414,11.384-8.083,17.086c-1.341,2.864-0.281,5.147,2.062,7.018
		c10.914,8.716,19.798,19.763,31.589,27.494c1.31,0.858,2.262,2.446,3.053,3.876c2.15,3.889,1.312,5.446-3.263,5.646
		c-4.653,0.201-9.322,0.021-13.983-0.012c-7.626-0.053-10.512,4.385-6.498,10.896c4.425,7.177,7.414,14.771,9.709,22.846
		c1.323,4.658,1.421,9.181,1.164,13.812c-0.473,8.491-0.555,8.487,5.337,13.219c-2.359,2.112-7.343,0.515-7.746,5.042
		c-0.363,4.068,3.774,4.568,5.915,6.661c0.405,0.396,0.811,1.173,0.693,1.645c-0.23,0.93-1.249,0.908-2.058,1.08
		c-2.888,0.615-6.936-1.398-8.308,2.696c-1.464,4.366,3.284,5.175,5.308,7.491c2.106,2.411,1.402,3.399-1.353,3.896
		c-2.521,0.453-4.973-0.162-7.442-0.512c-1.815-0.257-3.324,0.225-4.21,1.938c-0.868,1.682,0.183,2.842,1.21,3.971
		c0.561,0.616,1.226,1.148,1.721,1.81c1.208,1.608,4.074,2.806,2.467,5.296c-1.358,2.103-3.92,1.271-6.031,0.903
		c-2.461-0.428-4.891-1.031-7.353-1.45c-1.562-0.267-2.975,0.016-3.822,1.634c-0.823,1.571-0.411,2.904,0.664,4.121
		c1.103,1.248,2.284,2.428,3.381,3.681c0.856,0.98,2.062,1.957,1.289,3.457c-0.72,1.4-2.242,1.455-3.532,1.323
		c-3.308-0.34-6.581-1.003-9.891-1.312c-5.152-0.481-6.726,1.868-4.592,6.593c0.846,1.87,3.003,3.792,0.908,5.839
		c-1.803,1.761-4.28,1.522-6.604,0.705c-1.886-0.663-3.754-1.389-5.669-1.953c-5.335-1.574-8.775,1.479-7.924,6.821
		c0.342,2.146,2.056,4.501-0.363,6.492c-2.503,2.062-4.747,0.173-6.989-0.647c-2.812-1.027-5.518-2.353-8.329-3.386
		c-2.32-0.853-4.719-0.586-6.691,0.856c-2.199,1.607-0.479,3.643-0.12,5.47c0.38,1.933,1.498,3.985-0.176,5.677
		c-1.888,1.911-4.154,0.7-6.077-0.054c-3.246-1.274-6.315-2.986-9.525-4.363c-5.742-2.463-8.229-0.642-7.874,5.428
		c0.175,3.006,2.462,6.669-0.743,8.892c-3.482,2.414-6.051-1.351-8.891-2.696c-2.701-1.279-5.191-3.001-7.879-4.312
		c-4.367-2.129-5.663-1.379-6.269,3.331c-0.234,1.813-0.351,3.655-0.741,5.437c-1.033,4.708-2.894,5.629-6.986,3.229
		c-3.44-2.018-6.626-4.469-10.033-6.55c-4.803-2.933-7.515-1.958-9.729,3.277c-5.11,12.087-6.312,12.361-15.934,3.677
		c-1.234-1.115-2.42-2.332-3.81-3.218c-3.758-2.397-6.892-1.59-9.219,2.282c-1.63,2.711-3.107,5.514-4.755,8.212
		c-1.904,3.122-4.273,3.444-6.933,0.873c-1.677-1.62-3.317-3.278-4.975-4.92c-4.561-4.515-9.798-4.261-13.935,0.674
		c-0.105,0.128-0.192,0.272-0.301,0.399c-6.803,7.988-8.485,7.887-14.768-0.89c-2.848-3.979-9.199-5.062-13.139-2.169
		c-1.878,1.378-3.582,2.994-5.473,4.353c-4.738,3.404-6.938,3.025-10.286-1.614c-5.164-7.16-15.651-8.154-22.353-2.12
		c-4.186,3.771-8.096,3.071-10.739-1.998c-0.608-1.169-0.972-2.478-1.362-3.748c-1.467-4.763-4.453-6.084-8.953-3.773
		c-3.405,1.749-6.65,3.817-10.091,5.488c-4.727,2.295-7.139,0.795-7.687-4.522c-0.818-7.937-4.552-9.816-11.491-5.815
		c-1.151,0.664-2.353,1.256-3.569,1.795c-7.601,3.366-9.323,2.311-9.903-6.03c-0.269-3.86-5.14-6.726-8.784-5.058
		c-3.177,1.454-6.206,3.34-9.769,3.661c-2.773,0.249-5.154-0.279-4.532-4c0.305-1.822,2.412-3.814,0.129-5.413
		c-2.698-1.89-5.578-3.844-9.224-2.854c-2.247,0.61-4.424,1.545-6.699,1.977c-3.935,0.747-5.556-0.813-3.832-4.173
		c1.991-3.884,0.212-6.396-1.938-8.948c-2.162-2.567-4.603-0.533-6.909,0.02c-0.971,0.233-1.907,0.604-2.874,0.855
		c-1.959,0.511-4.205,1.152-5.701-0.431c-1.756-1.861,0.21-3.714,0.953-5.437c1.793-4.151-0.891-8.098-5.354-7.682
		c-0.99,0.093-1.97,0.52-2.947,0.496c-2.255-0.053-5.335,1.038-6.443-1.263c-1.111-2.305,1.955-3.391,3.378-4.853
		c1.108-1.138,2.046-2.206,1.171-3.918c-0.9-1.764-2.093-3.039-4.275-2.735c-2.47,0.344-4.925,0.804-7.4,1.078
		c-1.094,0.12-2.443,0.421-3.027-1.016c-0.456-1.122,0.411-1.85,1.011-2.625c0.102-0.132,0.228-0.244,0.332-0.374
		c1.983-2.476,5.818-4.215,4.092-8.302c-1.768-4.188-5.514-1.62-8.396-1.974c-1.461-0.179-3.253,0.118-3.665-1.799
		c-0.381-1.775,1.113-2.605,2.378-3.43c1.87-1.22,4.604-1.815,3.81-5.021c-0.75-3.027-3.19-2.805-5.57-2.969
		c-2.809-0.192-3.035-1.774-1.305-3.607c1.235-1.31,2.728-2.422,4.24-3.415c1.904-1.249,2.688-2.959,2.407-5.102
		c-0.303-2.322-2.09-2.733-4.064-2.804c-1.13-0.04-2.662,0.229-2.967-1.184c-0.271-1.253,1.045-2.02,1.994-2.636
		c3.57-2.317,5.038-5.239,2.917-9.299c-0.594-1.138-0.688-2.122,0.22-3.198c4.746-5.624,6.644-12.408,8.2-19.434
		c1.118-5.052,3.383-9.762,6.33-14.052c2.257-3.284,2.221-6.165-0.982-8.753c-6.892-5.568-8.751-13.621-10.043-21.654
		c-1.019-6.332-2.389-12.824-0.329-19.308c0.278-0.875,0.117-2.035-0.206-2.93c-4.571-12.668-0.232-23.501,6.969-33.69
		c1.278-1.809,2.574-3.59,2.799-5.761c0.612-5.899,4.05-10.191,8.064-13.98c2.857-2.699,4.856-5.79,6.723-9.174
		c4.534-8.224,12.158-13.545,19.138-19.389c9.055-7.581,18.347-14.873,28.243-21.365c7.983-5.237,10.884-14.049,14.934-21.999
		c1.746-3.428,3.069-7.03,7.106-8.55c1.273-0.479,2.398-1.652,2.456-2.978c0.277-6.438,4.657-10.492,8.417-14.886
		c8.531-9.969,17.138-19.612,28.224-27.232c9.729-6.687,19.26-14.053,26.9-23.56c3.647-4.537,8.319-8.332,13.771-11.555
		c4.641-2.744,11.597-6.466,9.556-15.771c-1.938-8.846,3.6-16.714,8.493-23.827C603.108-121.6,606.158-124.263,608.024-127.807z
		 M794.274,279.707c-3.327,0.223-8.304-4.165-8.956,3.544c-0.183,2.167-1.937,0.499-3.031-0.032
		c-2.77-1.341-2.444-5.746-6.401-6.095c-1.935-0.17-1.057-4.758-4.179-3.671c-2.637,0.918,0.538,4.032-1.594,5.629
		c-1.5,1.124-0.505,2.348,0.603,3.248c1.324,1.079,2.618,1.387,3.812-0.252c0.656-0.898,1.387-2.34,2.663-1.387
		c0.937,0.699,1.891,2.151,1.831,3.213c-0.076,1.372-1.389,1.874-3,1.496c-2.31-0.544-2.367,1.248-2.257,2.768
		c0.129,1.754,1.206,2.229,2.787,1.551c2.814-1.21,6.234-1.124,8.648-2.196c2.819-1.252,5.162-3.933,8.562-4.814
		c0.995-0.259,0.876-1.993,0.389-3.149c2.931-0.798,4.948-3.85,8.552-3.285c0.624,0.099,0.907-1.895,0.078-3.022
		c-0.707-0.965-1.408-2.538-0.113-3.014c3.181-1.168,3.776-3.722,2.046-5.568c-1.527-1.632-4.469-0.858-6.466,0.753
		c-2.321,1.873-4.998,1.599-7.626,1.316c-2.443-0.264-5.896,2.586-5.648,4.96c0.172,1.655,1.302,2.729,2.789,3.106
		c1.208,0.306,2.348-0.307,2.667-1.656c0.309-1.304-0.354-3.503,2.251-2.495c2.097,0.812,1.802,2.443,0.93,4.102
		C792.669,276.546,792.635,278.246,794.274,279.707z M765.945,145.61c-3.064-0.798-3.537-3.362-4.419-6.147
		c-2.059-6.5-2.665-13.276-11.035-16.783c-12.873-5.396-23.838-3.471-34.565,4.208c-2.625,1.878-4.772,4.055-8.351,4.718
		c-4.131,0.765-5.802,5.173-6.693,8.6c-0.303,1.161,2.359,4.195,2.59,7.154c0.236,3.042-1.386,4.152-3.233,5.565
		c-2.227,1.7-3.621-0.157-5.288-1.104c-3.532-2.008-5.607-5.404-8.293-8.251c-6.889-7.3-22.103-2.93-28.952,3.194
		c-7.445,6.657-11.95,14.881-13.994,24.657c-0.507,2.426-0.654,4.508,0.274,6.741c1.895,4.558,4.919,8.728,4.615,14.057
		c-0.04,0.712,1.029,1.686,1.806,2.21c2.886,1.947,5.832,3.811,8.814,5.608c5.32,3.207,5.162,4.449,0.487,8.655
		c-3.35,3.012-7.601,6.171-7.201,11.329c0.43,5.547-1.605,9.507-5.28,13.336c-4.482,4.672-7.821,9.94-6.008,17.038
		c2.61,10.216,9.095,17.208,18.073,22.128c7.48,4.097,14.682,2.856,21.626-1.538c4.214-2.667,8.716-4.907,12.124-8.714
		c1.02-1.139,2.317-2.024,3.981-1.196c2.019,1.004,1.07,2.623,0.542,3.895c-1.586,3.817-0.572,6.98,1.698,10.229
		c11.049,15.811,25.824,20.402,43.62,13.338c10.839-4.303,16.195-12.32,16.607-23.981c0.279-7.918-2.943-14.476-6.709-21.046
		c-0.74-1.291-4.375-2.829-1.09-4.857c1.737-1.072,3.037-3.293,5.59-2.871c1.641,0.271,3.281,0.605,4.936,0.726
		c12.28,0.896,22.762-1.741,31.383-11.87c7.516-8.829,7.167-17.963,4.767-27.857c-1.354-5.581-4.062-10.452-8.508-14.38
		c-10.758-9.503-22.457-8.534-34.539-3.363c-1.996,0.854-3.92,1.776-5.411-0.104c-1.569-1.979,1.034-2.79,1.884-3.923
		c5.897-7.854,12.594-15.357,11.576-26.187C763.147,146.469,766.038,147.634,765.945,145.61z M762.104,300.04
		c1.404-1.581-0.053-3.777,2.227-4.828c0,0.619,0.045,1.021-0.007,1.409c-0.459,3.456,2.554,2.123,4.02,2.771
		c0.736,0.325,1.735-0.69,1.275-1.548c-1.979-3.701-3.98-7.413-6.313-10.891c-0.825-1.229-2.498-0.707-3.241,0.669
		c-0.427,0.789-0.775,1.887,0.841,2.19c1.158,0.217,3.373,0.104,2.479,2.018c-0.91,1.947-2.56,0.238-3.786-0.318
		c-0.735-0.334-1.331-0.972-2.368-0.654C754.87,295.86,758.519,297.746,762.104,300.04z M749.596,296.21
		c-0.744,1.366,0.852,2.081,0.47,2.974c-1.09,2.552,0.511,3.55,2.402,3.589c1.301,0.026,3.493,0.839,4.053-0.87
		c0.801-2.438-1.823-2.092-3.089-2.813C752.071,298.314,751.954,295.996,749.596,296.21z M823.48,245.414
		c-1.681-3.768-5.354-4.505-7.738-6.672c-0.189-0.172-1.047,0.051-1.286,0.342c-0.491,0.6,0.002,1.092,0.393,1.661
		C816.814,243.611,819.543,244.99,823.48,245.414z M797.577,248.905c-0.727,0.243-1.628,1.062-1.323,1.186
		c2.259,0.923,2.538,4.22,5.254,4.354c0.743,0.037,1.716-0.649,1.422-1.652C802.151,250.134,799.36,250.169,797.577,248.905z
		 M785.047,259.062c0.15-1.504-0.127-2.898-1.848-2.891c-2.395,0.011-1.566,2.504-2.391,3.754c-0.76,1.153,0.45,1.665,1.544,1.642
		C783.989,261.532,785.337,261.108,785.047,259.062z M776.522,108.75c1.991-1.611,3.816-3.088,5.787-4.684
		C777.431,102.838,776.929,103.248,776.522,108.75z M762.56,125.995c-1.223-0.062-1.638,0.489-1.491,1.479
		c0.252,1.703,1.147,3.155,2.777,3.494c0.564,0.118,2.196-1.536,2.072-2.104C765.56,127.222,763.943,126.508,762.56,125.995z"/>
	<path fill-rule="evenodd" clip-rule="evenodd" fill="none" d="M765.945,145.61c0.093,2.023-2.798,0.858-2.576,3.213
		c1.018,10.829-5.679,18.332-11.576,26.187c-0.85,1.133-3.453,1.943-1.884,3.923c1.491,1.88,3.415,0.958,5.411,0.104
		c12.082-5.171,23.781-6.14,34.539,3.363c4.446,3.928,7.153,8.799,8.508,14.38c2.4,9.895,2.749,19.028-4.767,27.857
		c-8.621,10.129-19.103,12.766-31.383,11.87c-1.654-0.12-3.295-0.454-4.936-0.726c-2.553-0.422-3.853,1.799-5.59,2.871
		c-3.285,2.028,0.35,3.566,1.09,4.857c3.766,6.57,6.988,13.128,6.709,21.046c-0.412,11.661-5.769,19.679-16.607,23.981
		c-17.796,7.064-32.571,2.473-43.62-13.338c-2.271-3.248-3.284-6.411-1.698-10.229c0.528-1.271,1.477-2.891-0.542-3.895
		c-1.664-0.828-2.962,0.058-3.981,1.196c-3.408,3.807-7.91,6.047-12.124,8.714c-6.944,4.395-14.146,5.635-21.626,1.538
		c-8.979-4.92-15.463-11.912-18.073-22.128c-1.813-7.098,1.525-12.366,6.008-17.038c3.675-3.829,5.71-7.789,5.28-13.336
		c-0.399-5.158,3.852-8.317,7.201-11.329c4.675-4.206,4.833-5.448-0.487-8.655c-2.982-1.798-5.929-3.661-8.814-5.608
		c-0.776-0.524-1.846-1.498-1.806-2.21c0.304-5.329-2.721-9.499-4.615-14.057c-0.929-2.233-0.781-4.315-0.274-6.741
		c2.044-9.776,6.549-18,13.994-24.657c6.85-6.125,22.063-10.494,28.952-3.194c2.686,2.847,4.761,6.243,8.293,8.251
		c1.667,0.946,3.062,2.804,5.288,1.104c1.848-1.413,3.47-2.523,3.233-5.565c-0.23-2.959-2.893-5.993-2.59-7.154
		c0.892-3.427,2.562-7.835,6.693-8.6c3.578-0.663,5.726-2.84,8.351-4.718c10.728-7.679,21.692-9.604,34.565-4.208
		c8.37,3.507,8.977,10.284,11.035,16.783C762.408,142.249,762.881,144.812,765.945,145.61z M694.336,207.525
		c-2.559,2.812-0.593,4.892-0.9,6.924c-1.16,7.65,3.214,12.793,8.268,17.556c1.666,1.569,3.353,1.521,5.35-0.136
		C699.424,225.603,694.998,217.971,694.336,207.525z"/>
	<path fill-rule="evenodd" clip-rule="evenodd" fill="none" d="M794.274,279.707c-1.64-1.461-1.605-3.161-0.664-4.952
		c0.872-1.658,1.167-3.289-0.93-4.102c-2.604-1.008-1.942,1.191-2.251,2.495c-0.319,1.35-1.459,1.962-2.667,1.656
		c-1.487-0.377-2.617-1.451-2.789-3.106c-0.247-2.374,3.205-5.224,5.648-4.96c2.628,0.282,5.305,0.557,7.626-1.316
		c1.997-1.611,4.938-2.385,6.466-0.753c1.73,1.847,1.135,4.4-2.046,5.568c-1.295,0.476-0.594,2.049,0.113,3.014
		c0.829,1.128,0.546,3.121-0.078,3.022c-3.604-0.564-5.621,2.487-8.55,3.289C794.155,279.565,794.274,279.707,794.274,279.707z"/>
	<path fill-rule="evenodd" clip-rule="evenodd" fill="none" d="M794.274,279.707c0,0-0.119-0.142-0.121-0.145
		c0.485,1.152,0.604,2.887-0.391,3.146c-3.399,0.882-5.742,3.562-8.562,4.814c-2.414,1.072-5.834,0.986-8.648,2.196
		c-1.581,0.679-2.658,0.203-2.787-1.551c-0.11-1.52-0.053-3.312,2.257-2.768c1.611,0.378,2.924-0.124,3-1.496
		c0.06-1.062-0.895-2.514-1.831-3.213c-1.276-0.953-2.007,0.488-2.663,1.387c-1.194,1.639-2.488,1.331-3.812,0.252
		c-1.107-0.9-2.103-2.124-0.603-3.248c2.132-1.597-1.043-4.711,1.594-5.629c3.122-1.087,2.244,3.501,4.179,3.671
		c3.957,0.349,3.632,4.754,6.401,6.095c1.095,0.531,2.849,2.199,3.031,0.032C785.971,275.542,790.947,279.93,794.274,279.707z"/>
	<path fill-rule="evenodd" clip-rule="evenodd" fill="none" d="M762.104,300.04c-3.586-2.294-7.234-4.18-4.874-9.183
		c1.037-0.317,1.633,0.32,2.368,0.654c1.227,0.557,2.876,2.266,3.786,0.318c0.894-1.914-1.321-1.801-2.479-2.018
		c-1.616-0.304-1.268-1.401-0.841-2.19c0.743-1.376,2.416-1.898,3.241-0.669c2.333,3.478,4.334,7.189,6.313,10.891
		c0.46,0.857-0.539,1.873-1.275,1.548c-1.466-0.647-4.479,0.686-4.02-2.771c0.052-0.389,0.007-0.79,0.007-1.409
		C762.052,296.263,763.509,298.459,762.104,300.04z"/>
	<path fill-rule="evenodd" clip-rule="evenodd" fill="none" d="M749.596,296.21c2.358-0.214,2.476,2.104,3.836,2.879
		c1.266,0.722,3.89,0.375,3.089,2.813c-0.56,1.709-2.752,0.896-4.053,0.87c-1.892-0.039-3.492-1.037-2.402-3.589
		C750.447,298.291,748.852,297.576,749.596,296.21z"/>
	<path fill-rule="evenodd" clip-rule="evenodd" fill="none" d="M823.48,245.414c-3.938-0.424-6.666-1.803-8.632-4.669
		c-0.391-0.569-0.884-1.062-0.393-1.661c0.239-0.291,1.097-0.514,1.286-0.342C818.126,240.909,821.8,241.646,823.48,245.414z"/>
	<path fill-rule="evenodd" clip-rule="evenodd" fill="none" d="M797.577,248.905c1.783,1.264,4.574,1.229,5.353,3.887
		c0.294,1.003-0.679,1.689-1.422,1.652c-2.716-0.134-2.995-3.431-5.254-4.354C795.949,249.967,796.851,249.148,797.577,248.905z"/>
	<path fill-rule="evenodd" clip-rule="evenodd" fill="none" d="M785.047,259.062c0.29,2.046-1.058,2.47-2.694,2.505
		c-1.094,0.023-2.304-0.488-1.544-1.642c0.824-1.25-0.004-3.743,2.391-3.754C784.92,256.164,785.197,257.559,785.047,259.062z"/>
	<path fill-rule="evenodd" clip-rule="evenodd" fill="none" d="M776.522,108.75c0.406-5.502,0.908-5.911,5.787-4.684
		C780.339,105.661,778.514,107.139,776.522,108.75z"/>
	<path fill-rule="evenodd" clip-rule="evenodd" fill="none" d="M762.56,125.995c1.384,0.514,3,1.228,3.358,2.869
		c0.124,0.567-1.508,2.222-2.072,2.104c-1.63-0.339-2.525-1.791-2.777-3.494C760.922,126.484,761.337,125.932,762.56,125.995z"/>
	<path fill-rule="evenodd" clip-rule="evenodd" fill="#FFFFFF" d="M694.336,207.525c0.662,10.445,5.088,18.077,12.717,24.344
		c-1.997,1.656-3.684,1.705-5.35,0.136c-5.054-4.763-9.428-9.905-8.268-17.556C693.743,212.417,691.777,210.337,694.336,207.525z"/>
</g>
</svg>
