<?xml version="1.0" encoding="utf-8"?>
<!-- Generator: Adobe Illustrator 16.0.4, SVG Export Plug-In . SVG Version: 6.00 Build 0)  -->
<!DOCTYPE svg PUBLIC "-//W3C//DTD SVG 1.1//EN" "http://www.w3.org/Graphics/SVG/1.1/DTD/svg11.dtd">
<svg version="1.1" id="Layer_1" xmlns="http://www.w3.org/2000/svg" xmlns:xlink="http://www.w3.org/1999/xlink" x="0px" y="0px"
	 width="288px" height="288px" viewBox="0 0 288 288" enable-background="new 0 0 288 288" xml:space="preserve">
<path fill="#FFFFFF" d="M144,22.253c-70.089,0-126.907,56.818-126.907,126.907S73.911,276.067,144,276.067
	c70.087,0,126.906-56.818,126.906-126.907S214.088,22.253,144,22.253z M228.62,202.79h-14.68v-50.16h-55.12v50.16h-14.67v-87.3
	l-29.55,87.3h-14.39L69.3,112.33v3.28c0,2.63,0.07,6.64,0.22,12.01c0.14,5.38,0.21,9.34,0.21,11.87v63.3H55.86V95.54h20.82
	l30.84,90.67l30.62-90.67h20.68v44.31h55.12V95.54h14.68V202.79z"/>
</svg>
